<?xml version="1.0" encoding="utf-8"?>
<!-- Generator: Adobe Illustrator 21.1.0, SVG Export Plug-In . SVG Version: 6.00 Build 0)  -->
<svg version="1.1" xmlns="http://www.w3.org/2000/svg" xmlns:xlink="http://www.w3.org/1999/xlink" x="0px" y="0px"
	 viewBox="0 0 566.9 566.9" style="enable-background:new 0 0 566.9 566.9;" xml:space="preserve">
<style type="text/css">
	.st0{display:none;}
	.st1{filter:url(#Adobe_OpacityMaskFilter);}
	.st2{mask:url(#SVGID_1_);fill:#E5E5E5;}
	.st3{fill:#E5E5E5;}
	.st4{fill:#E9531D;}
	.st5{fill:#26367D;}
	.st6{fill:#278B40;}
	.st7{fill:#721248;}
	.st8{fill:#E95C0C;stroke:#000000;stroke-width:2;stroke-miterlimit:10;}
	.st9{fill:#009839;stroke:#000000;stroke-width:1.9245;stroke-miterlimit:10;}
	.st10{fill:#253786;stroke:#000000;stroke-width:1.894;stroke-miterlimit:10;}
	.st11{fill:#9FC519;stroke:#000000;stroke-width:1.9245;stroke-miterlimit:10;}
	.st12{fill:none;stroke:#000000;stroke-width:3;stroke-miterlimit:10;}
	.st13{fill:#4E4797;stroke:#000000;stroke-width:2;stroke-miterlimit:10;}
	.st14{fill:none;stroke:#000000;stroke-miterlimit:10;}
	.st15{fill:#F8AA1C;}
	.st16{fill:none;stroke:#000000;stroke-width:2;stroke-miterlimit:10;}
	.st17{fill:none;stroke:#000000;stroke-width:0.25;stroke-miterlimit:10;}
	.st18{fill:#253786;stroke:#000000;stroke-width:2;stroke-miterlimit:10;}
	.st19{fill:#009839;stroke:#000000;stroke-width:2;stroke-miterlimit:10;}
</style>
<g id="fond_cicuit_imprimé">
	<g>
		<path class="st0" d="M68.7,475.2c0-145.7,0-291.4,0-437c153.4,0,306.7,0,460.1,0c0,145.7,0,291.4,0,437
			C375.4,475.2,222.1,475.2,68.7,475.2z M244.7,211.1c-0.1,0-0.1,0-0.2,0c0,4.6,0,9.1,0,13.7c0,9.1-0.1,18.2-0.1,27.3
			c0,2.1-0.7,3.7-2.2,5.2c-4.8,4.7-9.6,9.4-14.3,14.2c-1.3,1.3-2.7,1.9-4.5,1.8c-10.6-0.1-21.3-0.1-31.9-0.2c-1.8,0-3.4,0.5-4.8,1.8
			c-6.4,6.3-12.9,12.5-19.3,18.7c-1.3,1.3-2.7,2.1-4.7,2.1c-3.2-0.1-6.4-0.1-9.6,0c-1.5,0-2.8-0.3-4-1.4c-1.6-1.6-4-1.3-5.3,0.3
			c-1.2,1.5-1,3.7,0.3,5.1c1.3,1.3,3.2,1.4,4.8,0c1.3-1.1,2.7-1.5,4.4-1.5c3.6,0.1,7.1,0,10.7,0c1.2,0,2.2-0.4,3-1.2
			c6.7-6.5,13.4-13,20.1-19.6c1.3-1.3,2.6-1.8,4.4-1.8c11.1,0.1,22.2,0.1,33.4,0.1c0.9,0,2-0.4,2.7-1c6.1-6,12.2-12,18.2-18.1
			c0.6-0.6,0.9-1.6,1-2.4c0.1-4.2,0.2-8.4,0.2-12.6c0.1-14.1,0.2-28.2,0.2-42.3c0-9.3-0.1-18.6,0.2-27.9c0.1-3.4-0.9-5.8-3.3-8.2
			c-12.7-12.6-25.2-25.5-37.8-38.2c-1.2-1.2-1.7-2.5-1.7-4.2c0-8.4,0-16.7,0.1-25.1c0-3.8,0-7.7,0.1-11.5c0-1.5,0.2-2.8,1.3-3.9
			c1.8-1.7,1.5-3.8-0.4-5.2c-1.6-1.1-3.9-0.8-5.1,0.7c-1.1,1.4-1.1,3.7,0.2,4.7c1.2,0.9,1.5,1.9,1.5,3.3c-0.1,12.5-0.2,25-0.3,37.5
			c0,1.6,0.5,2.8,1.6,4c3,3,6,6,8.9,9c10.2,10.4,20.5,20.7,30.7,31c1.2,1.2,1.7,2.5,1.7,4.2c-0.1,6.8-0.2,13.6-0.2,20.4
			C244.7,196.9,244.7,204,244.7,211.1z M405.1,242.6c1.6,1.5,2.7,3.2,2.4,5.5c-0.2,1.4-0.1,2.8-0.1,4.2c-0.1,19.8-0.2,39.6-0.3,59.4
			c0,1.8,0,3.5-1.6,4.8c-0.3,0.3-0.5,0.8-0.7,1.3c-0.6,1.7,0.2,3.5,1.7,4.3c1.6,0.9,3.7,0.4,4.8-1.1c1.1-1.5,0.9-3-0.5-4.4
			c-0.9-0.9-1.3-2-1.3-3.2c0-3,0.1-6.1,0.1-9.1c0.1-14,0.1-27.9,0.2-41.9c0-5.2,0-10.5,0.2-15.7c0-0.9,0.5-2,1.1-2.8
			c1.6-1.8,1.8-3.7,0.2-5.1c-1.6-1.5-4-1.4-5.5,0.4c-0.2,0.3-0.5,0.6-0.7,0.8c-0.6-0.6-1.2-1.2-1.8-1.7c-1.5-1-3.7-0.6-4.8,0.8
			c-1.1,1.4-1.1,3.6,0.1,4.6c1.2,1,1.5,2.1,1.5,3.6c-0.1,8-0.1,16.1-0.2,24.1c-0.1,7.7-0.1,15.4-0.2,23c-0.1,10.7-0.1,21.4-0.2,32
			c0,1.4,0.4,2.5,1.4,3.5c4.1,4.2,8.2,8.5,12.4,12.7c1.2,1.2,1.7,2.5,1.7,4.2c-0.1,12.1-0.1,24.2-0.2,36.2
			c-0.1,11.8-0.2,23.5-0.2,35.3c0,1.2-0.3,2.2-1.2,3.1c-0.9,0.9-1.4,2-1.1,3.4c0.3,1.5,1.6,2.7,3.1,2.9c1.5,0.2,3.1-0.6,3.8-1.9
			c0.8-1.4,0.4-2.8-0.6-3.9c-1.1-1.2-1.5-2.4-1.5-4c0.1-11.6,0.1-23.2,0.2-34.8c0.1-12.2,0.1-24.5,0.2-36.7c0-1.6-0.5-2.9-1.6-4.1
			c-4.2-4.3-8.3-8.7-12.5-13c-0.9-0.9-1.2-1.9-1.2-3.1c0.1-14.2,0.2-28.5,0.2-42.7c0-7.1,0-14.2,0-21.4c0-4.9,0-9.8,0-14.8
			C402.6,245.4,403,243.6,405.1,242.6z M306.8,342.7c-0.1,0-0.1,0-0.2,0c0,6.8,0,13.7,0,20.5c0,1.2,0.1,2.3,1,3.2
			c2.8,2.8,5.5,5.6,8.4,8.3c0.7,0.6,1.8,1,2.8,1.1c2.2,0.2,4.5,0,6.7,0.1c1.5,0.1,2.6-0.5,3.6-1.5c2.5-2.5,5-4.9,7.6-7.3
			c1.3-1.1,1.8-2.4,1.8-4.1c0-7.5,0-15,0-22.6c0-1.3,0.3-2.5,1.3-3.5c1.4-1.4,1.6-2.8,0.7-4.2c-1-1.6-3.1-2.2-4.7-1.5
			c-2.4,1-2.9,3.9-1,6c0.7,0.8,1.3,1.6,1.3,2.7c-0.1,7.6-0.1,15.3-0.1,22.9c0,1.2-0.3,2.3-1.3,3.2c-1,0.9-1.8,1.9-2.8,2.8
			c-2.4,2.3-5,4.2-8.5,4.6c-2.5,0.3-5,0.2-7-1.4c-1.9-1.6-3.5-3.5-5.3-5.2c-1.5-1.4-2.1-3.1-2-5.2c0.1-13.1,0.2-26.2,0.3-39.2
			c0-1.4,0.4-2.5,1.4-3.5c2.6-2.7,5.3-5.4,8-8.1c0.9-0.9,1.3-1.9,1.3-3.2c0-7.6,0-15.1,0.1-22.7c0-3.4,0.1-6.9,0.1-10.3
			c0.1-13.8,0.2-27.5,0.3-41.3c0-1.5-0.5-2.8-1.6-3.8c-4.7-4.7-9.4-9.4-14.1-14.1c-0.9-0.9-1.3-1.9-1.3-3.2
			c0.1-5.2,0.1-10.3,0.1-15.5c0-7.8,0.1-15.6,0.1-23.4c0-1.8,0-3.4,1.6-4.7c0.2-0.2,0.4-0.5,0.5-0.8c0.8-1.6,0.2-3.6-1.3-4.5
			c-1.6-1-3.7-0.7-5,0.8c-1.1,1.3-1.2,3,0,4.2c1.3,1.3,1.6,2.7,1.6,4.4c-0.1,13.1-0.2,26.2-0.3,39.2c0,1.8,0.5,3.1,1.8,4.4
			c4.7,4.6,9.2,9.2,13.9,13.8c1,0.9,1.4,2,1.4,3.3c-0.1,10.4-0.2,20.8-0.2,31.2c0,7,0,13.9-0.1,20.9c0,7-0.1,14-0.2,21
			c0,1.7-0.6,3.2-1.8,4.4c-2.4,2.5-4.8,4.9-7.2,7.4c-1.1,1.1-1.6,2.4-1.6,4C306.8,329.2,306.8,335.9,306.8,342.7z M253.1,200.5
			c-0.1,0-0.3,0-0.4,0c0,11.2,0,22.5,0,33.7c0,7.1-0.1,14.2-0.1,21.4c0,1.4-0.5,2.5-1.5,3.5c-6.8,6.7-13.6,13.4-20.3,20.1
			c-1,1-2.1,1.5-3.5,1.4c-6.9-0.1-13.8-0.1-20.6-0.1c-1.3,0-2.4-0.4-3.3-1.3c-0.4-0.4-1-0.7-1.5-0.9c-1.6-0.6-3.5,0.1-4.3,1.7
			c-0.9,1.6-0.4,3.7,1.1,4.9c1.3,1,3.1,1,4.2-0.3c1.1-1.3,2.5-1.6,4.1-1.6c6.9,0.1,13.8,0.1,20.6,0.2c1.2,0,2.4-0.1,3.3-1
			c7.7-7.6,15.4-15.2,23-22.8c0.7-0.7,1-1.8,1.2-2.8c0.2-1,0.1-2,0.1-3c0.1-16.6,0.2-33.1,0.2-49.7c0-8.4,0.1-16.9,0.2-25.3
			c0.1-11.4,0.1-22.7,0.1-34.1c0-0.9-0.5-2-1.1-2.7c-2.1-2.4-4.4-4.6-6.7-6.9c-4.4-4.5-8.8-8.9-13.2-13.4c-0.9-0.9-1.6-2-1.6-3.4
			c0-11.5,0.1-23,0.1-34.4c0-1.3,0.4-2.4,1.4-3.3c1.9-1.8,1.5-4.3-0.9-5.5c-1.7-0.8-3.8-0.3-4.8,1.2c-1.1,1.6-0.9,3.4,0.7,4.7
			c0.9,0.7,1.1,1.7,1.1,2.8c0,6,0,12.1-0.1,18.1c0,5.5-0.1,11-0.2,16.6c0,1.4,0.4,2.5,1.4,3.5c6.3,6.3,12.5,12.7,18.9,18.9
			c1.7,1.7,2.5,3.5,2.4,5.9C253,164.6,253.1,182.6,253.1,200.5z M277.5,243.3c0.7,0,1.1,0,1.5,0c6.5,0,13,0.1,19.6,0.1
			c1.5,0,2.7,0.2,3.8,1.4c1.3,1.5,3.6,1.3,5-0.1c1.4-1.5,1.4-3.8-0.2-5.5c-1.1-1.2-3.1-1.2-4.6,0c-1.3,1.1-2.6,1.5-4.3,1.5
			c-7.1-0.1-14.2,0-21.2,0c-1.8,0-2.2,0.5-2.2,2.3c-0.1,11-0.2,22-0.2,33.1c-0.1,15-0.2,30-0.2,45.1c0,12.2,0,24.3,0,36.5
			c0,1.8-0.4,3.4-1.9,4.7c-3.3,3-6.5,6.3-9.7,9.4c-1.2,1.1-2.5,1.8-4.2,1.7c-2.3-0.1-4.6,0-6.8,0c-1,0-2-0.4-2.9-0.2
			c-3,0.6-5.3-0.2-7.5-2.4c-6.2-6.4-12.4-12.7-18.7-18.9c-1.1-1.1-1.7-2.1-1.5-3.7c0.3-2-1.5-3.5-3.6-3.5c-2.1,0-3.6,1.6-3.6,3.6
			c0,1.9,1.9,3.8,3.7,3.6c1.4-0.2,2.3,0.3,3.3,1.3c6.9,7,13.9,14,20.8,21.1c1.2,1.2,2.6,1.8,4.3,1.8c4.2,0,8.5,0,12.7,0.1
			c2,0,3.5-0.6,4.9-2c3.9-3.8,7.8-7.6,11.7-11.4c1.1-1,1.6-2.3,1.6-3.7c0-2.2,0.1-4.3,0.1-6.5c0.1-16.5,0.2-33,0.2-49.4
			c0.1-12.6,0.1-25.3,0.2-37.9c0-5.6,0.1-11.1,0.1-16.7C277.5,246.8,277.5,245.1,277.5,243.3z M328,355.4c1.1,0,2.3-0.7,3-2.2
			c0.6-1.4,0.2-2.7-0.8-3.7c-1.1-1-1.5-2.2-1.4-3.7c0.1-4.6,0.1-9.2,0.2-13.8c0.1-14,0.2-27.9,0.2-41.9c0.1-11.9,0.1-23.8,0.2-35.8
			c0-5.3,0-10.6,0.2-16c0-1.1,0.6-2.5,1.3-3.3c3.8-4,7.8-7.9,11.8-11.8c8.9-8.7,17.7-17.5,26.6-26.2c0.9-0.9,1.3-1.9,1.3-3.1
			c0.1-13.3,0.2-26.6,0.2-39.8c0-1.8,0.4-3.4,1.6-4.9c1-1.1,1.3-2.5,0.4-3.9c-1.1-1.8-3.6-2.4-5.4-1.2c-1.8,1.2-2.2,3.7-0.6,5.5
			c1.1,1.2,1.4,2.5,1.4,4c-0.1,4.8-0.1,9.7-0.1,14.5c0,6.6,0,13.2-0.1,19.8c0,1.9,0,3.8-0.1,5.6c0,1.3-0.5,2.4-1.5,3.3
			c-7.4,7.3-14.8,14.6-22.2,21.9c-5.2,5.2-10.5,10.3-15.8,15.5c-1.1,1-1.6,2.2-1.6,3.7c-0.1,15.3-0.2,30.6-0.2,45.8
			c-0.1,18.4-0.2,36.8-0.2,55.2c0,2.5,0,5,0,7.4c0,1-0.3,1.7-1.1,2.4c-1.3,1-1.7,2.4-1.1,4C324.5,354.5,325.8,355.4,328,355.4z
			 M357.7,355.6c1.6,0,2.9-0.8,3.5-2.3c0.6-1.4,0.3-2.6-1-3.7c-0.9-0.8-1.2-1.7-1.2-2.9c0-6.6,0.1-13.2,0.1-19.8
			c0-1.3-0.3-2.3-1.2-3.2c-3.4-3.5-6.7-7.1-10.1-10.6c-1.1-1.1-1.6-2.4-1.6-4c0.1-16.5,0.2-33,0.3-49.5c0-7.1,0.1-14.2,0-21.4
			c0-1.8,0.5-3.1,1.8-4.4c12.3-12.1,24.7-24.2,37-36.3c0.9-0.9,1.4-1.8,1.4-3.2c0-7.2,0.1-14.3,0.1-21.5c0-6.5,0-13,0-19.5
			c0-1.5,0.4-2.8,1.4-3.8c1.9-1.9,1.4-4.4-1.1-5.4c-1.6-0.7-3.6-0.1-4.5,1.4c-1,1.6-0.8,3.1,0.6,4.5c0.9,0.8,1.2,1.9,1.2,3
			c-0.1,9.6-0.1,19.3-0.2,28.9c0,3.8-0.1,7.6-0.1,11.4c0,1.6-0.4,2.9-1.6,4c-1,0.9-2,1.9-3,2.9c-4.7,4.6-9.3,9.2-14,13.8
			c-6.8,6.6-13.5,13.3-20.2,20c-0.7,0.7-1.1,1.8-1.1,2.8c-0.2,6.6-0.2,13.2-0.2,19.8c-0.1,17.5-0.2,35-0.3,52.5
			c0,1.8,0.5,3.2,1.8,4.5c3.2,3.3,6.4,6.6,9.6,9.9c0.9,1,1.7,2,1.6,3.5c-0.1,6.6,0,13.2-0.1,19.8c0,0.8-0.5,1.8-1.1,2.4
			c-1.2,1.2-1.6,2.5-1,4.1C354.8,354.8,356.1,355.6,357.7,355.6z M315.3,147.6c0-0.1,0-0.2,0-0.2c-5.3,0-10.6,0-16,0
			c-3.8,0-7.7-0.1-11.5-0.1c-5.8,0-4.6-0.4-8.1,3.2c-0.1,0.1-0.1,0.1-0.2,0.2c-3.3,3.3-6.6,6.6-9.8,10.1c-0.6,0.7-1.1,1.8-1.1,2.8
			c-0.2,2.7-0.1,5.4-0.1,8.2c0,6.6-0.1,13.1-0.1,19.7c0,1.6-0.3,2.9-1.6,4c-1.3,1.2-1.3,3-0.2,4.3c1.3,1.7,3.8,1.9,5.4,0.6
			c1.6-1.3,1.8-3.6,0.3-5.2c-1.1-1.2-1.4-2.5-1.4-4c0.1-5.9,0-11.8,0.1-17.6c0-3.1,0-6.2,0.2-9.4c0.1-1,0.5-2.2,1.2-3
			c2.9-3.2,6-6.3,9.1-9.4c1.2-1.2,2.6-1.8,4.3-1.7c5.9,0.1,11.8,0.1,17.6,0.1c14.1,0,28.2,0,42.2,0.1c1.6,0,2.9-0.5,4-1.7
			c4.6-4.6,9.2-9.2,13.9-13.8c1-1,2-1.4,3.4-1.4c12.2,0.1,24.5,0.2,36.7,0.2c1.9,0,3.6,0.1,5.1,1.6c1.4,1.4,3.7,1,4.9-0.5
			c1.2-1.5,1-3.9-0.4-5.2c-1.4-1.3-3.2-1.2-4.8,0.4c-0.9,0.9-1.8,1.2-3,1.2c-13-0.1-25.9-0.1-38.9-0.2c-1.4,0-2.5,0.4-3.5,1.4
			c-4.6,4.7-9.3,9.3-14,14c-1.1,1.1-2.3,1.6-3.8,1.6C335.4,147.6,325.4,147.6,315.3,147.6z M301.3,128.7c0,2.3,0.1,4.3,0,6.3
			c0,0.7-0.5,1.5-1,2c-1.7,1.5-1.8,3.9-0.2,5.4c1.5,1.4,3.8,1.3,5.3-0.2c1.3-1.3,1.4-3.4-0.2-4.8c-0.7-0.6-1.1-1.9-1.2-3
			c-0.2-1.9,0-3.8,0-5.8c0-2.1-0.4-2.5-2.5-2.5c-4.6,0-9.1-0.1-13.7-0.1c-8.4,0-16.9-0.1-25.3-0.1c-2.2,0-3.9-0.7-5.4-2.3
			c-3.6-3.7-7.3-7.4-11-11.1c-1.2-1.1-1.7-2.4-1.7-4.1c0.1-8.4,0.2-16.7,0.2-25.1c0-1.2,0.4-2.2,1.4-3.1c1.5-1.4,1.5-3.5,0.1-4.9
			c-1.5-1.5-4-1.4-5.4,0.1c-1.4,1.5-1.4,3.8,0.1,5c1,0.8,1.3,1.6,1.3,2.8c0,8.6,0,17.2-0.1,25.8c0,1.4,0.4,2.7,1.5,3.7
			c4.6,4.6,9.1,9.2,13.7,13.8c1.1,1.2,2.4,1.8,4.1,1.7c1.3-0.1,2.6,0.1,4,0.1c9.1,0,18.2,0.1,27.2,0.1
			C295.3,128.7,298.2,128.7,301.3,128.7z M292.1,332.7c0.1,0,0.1,0,0.2,0c0-5.5,0-11,0-16.4c0-1.7,0.5-3.1,1.8-4.3
			c5.8-5.6,11.5-11.3,17.2-16.9c1.1-1.1,1.5-2.2,1.5-3.7c0-5.6,0-11.3,0-16.9c0-5,0-10.1,0-15.1c0-1.7,0.4-3.1,1.7-4.3
			c1.1-1,1.2-2.5,0.4-3.8c-1.1-1.8-3.6-2.4-5.3-1.2c-1.8,1.3-2.2,3.8-0.6,5.5c1.1,1.2,1.4,2.5,1.4,4c-0.1,10.4-0.2,20.9-0.2,31.3
			c0,1.5-0.4,2.6-1.5,3.7c-5.6,5.5-11.2,11.1-16.8,16.6c-1.5,1.4-2.2,2.9-2.2,4.9c0,8.4,0,16.7-0.1,25.1c0,2.9,0,5.8-0.1,8.8
			c0,0.8-0.4,1.8-1,2.3c-1.1,0.9-1.5,1.9-1.3,3.3c0.2,1.4,0.9,2.5,2.3,3c1.6,0.6,3.2,0.1,4.3-1.3c1-1.4,1.1-2.8-0.2-4.3
			c-1.1-1.3-1.5-2.7-1.5-4.4C292.2,343.1,292.1,337.9,292.1,332.7z M370.5,282.3c0.2,0,0.6-0.1,0.9-0.2c2.6-0.9,3.3-4,1.3-6.1
			c-0.7-0.8-1.2-1.5-1.2-2.6c0-3.8,0-7.7,0-11.5c0-1.4,0.4-2.5,1.5-3.4c2.1-2,4.1-3.9,6-6c0.7-0.8,1.3-1.9,1.3-2.9
			c0.2-3.5,0.2-7,0.2-10.5c0-5.4,0.1-10.8,0.1-16.2c0-1.3,0.4-2.3,1.3-3.2c7.2-7.1,14.3-14.3,21.5-21.4c1.4-1.4,2.8-3,5.2-2.7
			c0.1,0,0.3-0.1,0.5-0.1c1.9-0.5,3-2.2,2.6-4c-0.4-1.9-2.1-3.1-4-2.9c-2,0.2-3.4,1.7-3.1,3.7c0.2,1.5-0.4,2.4-1.3,3.3
			c-7.8,7.7-15.6,15.5-23.5,23.2c-1,1-1.6,2.2-1.6,3.7c0,3.3-0.1,6.6-0.1,10c0,5.4-0.1,10.7-0.1,16.1c0,1.4-0.4,2.6-1.4,3.6
			c-2,2-4.1,4-6.1,5.9c-0.9,0.8-1.4,1.8-1.4,3.1c0,3.4-0.1,6.9-0.1,10.3c0,2.1-0.2,3.9-1.7,5.5c-0.9,1-1.1,2.2-0.4,3.5
			C367.6,281.6,368.7,282.3,370.5,282.3z M264.7,281.9c-0.1,0-0.2,0-0.2,0c0,6.3,0,12.6,0,18.9c0,1.7-0.6,3.2-1.8,4.4
			c-3.8,3.7-7.5,7.4-11.2,11.2c-3.4,3.6-7.5,5.2-12.4,4.2c-0.9-0.2-1.9-0.6-2.5-1.2c-1.1-1.1-2.2-1.4-3.6-1.1
			c-1.4,0.4-2.3,1.4-2.7,2.8c-0.4,1.6,0.5,3.3,1.9,4.2c1.3,0.8,2.3,0.4,3.9-0.8c0.9-0.7,2.1-1.1,3.2-1.3c1.8-0.2,3.6-0.1,5.4,0
			c1.6,0.1,2.8-0.5,3.9-1.6c5.5-5.4,11-10.7,16.6-15.9c1.4-1.3,1.9-2.7,1.9-4.5c0-8,0-16,0-24c0-4.8,0.1-9.5,0.1-14.3
			c0-1.2,0.4-2.2,1.4-3.1c1.6-1.4,1.5-3.3,0.1-4.7c-1.5-1.5-4-1.5-5.4-0.1c-1.4,1.4-1.4,3.8,0,5c1,0.8,1.3,1.8,1.3,3
			C264.7,269.4,264.7,275.6,264.7,281.9z M219,307.4C219,307.4,219,307.4,219,307.4c0-1.5,0-3,0-4.4c0-3.3,0.1-6.6,0.2-9.9
			c0-2.1-0.4-2.6-2.6-2.6c-2.4,0-4.8,0-7.2,0c-2.6,0.1-5.1,0-7.2-1.9c-1-0.9-2.3-0.9-3.5-0.1c-1.3,0.9-2,2.1-1.8,3.7
			c0.2,1.4,0.9,2.5,2.3,3c1.4,0.5,2.8,0.3,3.8-0.8c1-1,2-1.4,3.4-1.3c2.7,0.1,5.4,0,8.2,0c1.9,0,1.9,0,1.9,1.9
			c0,8.9-0.1,17.7-0.2,26.6c0,1.7,0.5,3.2,1.8,4.4c5.4,5.5,10.8,11,16.3,16.5c0.9,0.9,1.3,1.8,1.2,3.1c-0.2,1.5,0.5,2.6,1.8,3.3
			c1.4,0.7,2.9,0.5,4-0.5c1.2-1,1.6-2.5,1.1-3.9c-0.5-1.4-1.8-2.3-3.3-2.3c-1.1,0-2.2,0-3-0.9c-5.4-5.5-10.9-11-16.2-16.5
			c-0.6-0.6-1-1.7-1-2.6C218.9,317.2,219,312.3,219,307.4z M302.3,229.4c2.1,0,3.5-1.5,3.5-3.5c0-2.1-1.4-3.5-3.8-3.5
			c-1.5,0-2.5-0.6-3.4-1.7c-2.2-2.8-4.4-5.5-6.6-8.2c-0.4-0.6-0.8-1.4-0.8-2.1c0-12.7,0.1-25.4,0.1-38.1c0-1.4,0.4-2.5,1.4-3.4
			c1.4-1.3,1.4-3.2,0.2-4.6c-1.5-1.6-3.7-1.7-5.3-0.4c-1.5,1.3-1.7,3.7-0.3,5.2c1.1,1.2,1.4,2.6,1.4,4.1
			c-0.1,12.8-0.1,25.5-0.1,38.3c0,1.6,0.5,2.9,1.6,4.1c2.5,2.5,4.9,5,7.4,7.5c0.7,0.7,1.2,1.5,1,2.6
			C298.4,227.7,300,229.4,302.3,229.4z M337.5,314.7c1.6,0,2.9-0.9,3.5-2.2c0.5-1.3,0.2-2.6-1-3.8c-0.9-0.9-1.2-1.9-1.2-3.1
			c0.1-4.3,0.1-8.5,0.2-12.8c0.1-12.4,0.1-24.8,0.2-37.2c0-1.4,0.4-2.5,1.4-3.5c1.3-1.2,1.4-3,0.3-4.3c-1.4-1.7-3.8-2-5.4-0.7
			c-1.6,1.3-1.7,3.7-0.2,5.4c1,1.1,1.4,2.3,1.4,3.8c-0.1,10.3-0.1,20.5-0.2,30.8c0,5.6-0.1,11.2-0.1,16.8c0,1.8-0.2,3.5-1.6,5
			c-1,1.1-1.1,2.6-0.5,3.9C334.8,314,336,314.7,337.5,314.7z M191.1,335.9c0-0.6,0-1.1,0-1.5c0-3.4,0.1-6.8,0-10.2
			c0-1.8,0.4-3.2,1.6-4.6c1.2-1.4,1.1-3.2,0-4.5c-1.5-1.6-3.8-1.7-5.4-0.2c-1.5,1.5-1.5,3.9,0.2,5.4c0.8,0.7,1.1,1.4,1,2.4
			c-0.1,3.1,0,6.2,0,9.4c0,0.4,0,0.8-0.1,1.3c-0.3,0-0.4,0.1-0.6,0.1c-9.1,0-18.1-0.1-27.2-0.1c-2.7,0-5.4-0.1-8-0.1
			c-1.5,0-2.6-0.3-3.7-1.4c-1.5-1.5-3.8-1.3-5.1,0.3c-1.4,1.5-1.2,3.8,0.4,5.3c1.5,1.4,3.2,1.3,4.8-0.4c0.8-0.8,1.7-1.2,2.8-1.2
			c1.3,0,2.6,0,4,0c9.8,0,19.7,0.1,29.5,0.1C187.2,335.9,189.1,335.9,191.1,335.9z M268.5,336.8c-0.1,0-0.1,0-0.2,0
			c0,4.2,0,8.4,0,12.6c0,1.2-0.3,2.3-1.2,3.2c-2,2-3.9,4-5.9,6c-2,2-3.3,2-5.3,0c-1.1-1-2.3-1.3-3.6-1c-1.4,0.3-2.4,1.4-2.6,2.9
			c-0.2,1.7,0.5,3.2,1.8,4c1.2,0.7,2.2,0.6,3.6-0.5c1.3-1.1,2.8-1.7,4.5-1.6c0.4,0,1-0.2,1.4-0.5c2.9-2.8,5.8-5.6,8.6-8.5
			c0.7-0.7,1.2-1.9,1.3-2.8c0.2-8.7,0.2-17.4,0.3-26.1c0-1.1-0.3-2.4-0.9-3.1c-1.3-1.4-2.5-2.6-1.8-4.7c0,0,0-0.1,0-0.1
			c-0.3-1.9-1.9-3.1-3.9-2.9c-2,0.2-3.2,1.5-3.2,3.5c0,2,1.3,3.4,3.3,3.5c3.2,0.3,4.1,1.2,4.1,4.3
			C268.5,328.8,268.5,332.8,268.5,336.8z M261.2,188.1c-0.1,0-0.1,0-0.2,0c0,5.6,0,11.1,0,16.7c0,2.5,0.3,5.2-1.9,7.1
			c-0.1,0.1-0.2,0.3-0.3,0.5c-0.7,1.7,0,3.7,1.6,4.5c1.6,0.9,3.8,0.4,4.9-1.1c1.1-1.5,0.9-3.2-0.6-4.6c-0.9-0.8-1.3-1.8-1.3-3
			c0.1-4.1,0.1-8.2,0.2-12.3c0-9,0.1-18,0.1-27c0-1.5,0.4-2.7,1.5-3.7c0.9-0.7,1.3-1.7,1-2.9c-0.3-1.6-1.8-2.8-3.6-2.9
			c-1.5-0.1-3,0.8-3.6,2.3c-0.6,1.6-0.2,2.9,1.1,4.2c0.5,0.4,1,1.2,1,1.8C261.2,174.5,261.2,181.3,261.2,188.1z M300.2,346.2
			c0,0,0.1,0,0.1,0c0-5.5,0-11,0-16.4c0-1.5,0.4-2.7,1.5-3.8c1.5-1.5,1.4-3.3-0.1-4.7c-1.6-1.5-4-1.4-5.4,0.1
			c-1.4,1.5-1.4,3.7,0.1,4.9c0.9,0.8,1.3,1.7,1.3,2.9c0,10.1-0.1,20.2-0.1,30.4c0,1.2,0,2.5-0.1,3.7c-0.1,2.2-1.2,3.4-3.4,3.5
			c-0.3,0-0.6,0-1,0c-2.2,0.2-3.5,1.9-3.2,4.1c0.2,1.8,2.1,3.2,4,2.9c2.1-0.3,3.3-1.8,3-3.9c-0.2-1.1,0.1-2.1,1-2.6
			c1.7-1.1,2.2-2.7,2.2-4.5C300.2,357.2,300.2,351.7,300.2,346.2z M333.2,215.3c2.8,0,4.3-2.5,3.1-5.1c-1.5-3.2-4-5.6-6.4-8
			c-3.3-3.3-6.6-6.5-9.8-9.9c-0.6-0.6-1-1.7-1-2.6c-0.1-4.5-0.1-9,0-13.5c0-1.2,0.3-2.3,1.3-3.2c1.7-1.5,1.6-3.3,0-4.9
			c-1.4-1.4-3.9-1.5-5.2,0c-1.5,1.7-1.7,3.5-0.1,5c1,1,1.4,2,1.3,3.3c-0.1,4.2,0,8.4-0.2,12.6c-0.1,1.9,0.4,3.5,1.9,4.8
			c0.6,0.5,1,1,1.5,1.5c3.7,3.6,7.4,7.3,11.1,10.9c1.1,1.1,1.1,1.7-0.1,2.6c-1.4,1.1-1.8,2.4-1.3,4
			C330.1,214.3,331.6,215.3,333.2,215.3z M276.5,209.4C276.4,209.4,276.4,209.4,276.5,209.4c-0.1,3.1-0.1,6.2-0.1,9.4
			c0,1.4-0.5,2.5-1.5,3.5c-2.5,2.4-5,4.9-7.4,7.3c-0.9,0.9-1.8,1.4-3.2,1.1c-1.3-0.3-2.5,0.3-3.2,1.4c-0.8,1.1-0.8,2.3-0.3,3.5
			c0.7,1.5,2.3,2.4,3.8,2.1c1.8-0.3,3-1.8,3-3.8c0-1.4,0.6-2.4,1.5-3.3c2.8-2.7,5.5-5.4,8.2-8.1c1-1,1.5-2.2,1.5-3.6
			c0-6.1,0.1-12.2,0.1-18.2c0-1.6,0.2-3,1.5-4.2c1.1-1.1,1.3-2.5,0.7-3.9c-0.5-1.3-1.7-2-3.1-2.1c-1.6-0.1-2.8,0.5-3.6,1.9
			c-0.7,1.4-0.4,2.8,0.6,3.9c0.9,1.1,1.4,2.3,1.4,3.7C276.4,203.2,276.5,206.3,276.5,209.4z M252.7,281.5c0-1.5-1.2-3.1-2.6-3.5
			c-1.5-0.4-3.4,0.4-4.1,1.8c-0.3,0.6-0.4,1.4-0.5,2.1c-0.1,1.2-0.6,2.2-1.4,3c-5.2,5.1-10.3,10.3-15.4,15.4c-1,0.9-1.6,2-1.6,3.4
			c0,1.6,0,3.3-0.1,4.9c0,1.8,0,3.6-1.6,4.9c-0.4,0.3-0.6,1-0.7,1.5c-0.5,1.7,0.4,3.4,2,4.1c1.7,0.7,3.7,0.1,4.7-1.3
			c1-1.5,0.8-3-0.7-4.4c-0.9-0.8-1.3-1.9-1.3-3.1c0.1-1.7,0.2-3.4,0-5.2c-0.2-2.1,0.6-3.6,2-5c4.6-4.4,9.1-8.9,13.6-13.4
			c1.1-1.1,2.2-1.8,3.9-1.7C251.2,285.1,252.7,283.5,252.7,281.5z M382.9,279.1c-1.2,0-2.3,0.7-3,2c-0.7,1.5-0.5,2.9,0.6,4.1
			c1,1,1.3,2.2,1.3,3.6c-0.1,4.8-0.1,9.6-0.1,14.4c0,1.2-0.4,2.2-1.2,3c-1.6,1.7-1.6,3.8-0.2,5.2c1.5,1.5,3.4,1.4,5.1-0.2
			c1.8-1.7,1.9-3.1,0-4.7c-1-0.9-1.3-1.9-1.3-3.1c0-5.2,0-10.4,0.2-15.6c0-0.9,0.5-2,1.2-2.6c1-1.1,1.7-2.2,1.1-3.8
			C386.3,280.1,384.8,279.1,382.9,279.1z M146.2,278.3c0,2.1,1.6,3.6,3.7,3.6c2.1-0.1,3.6-1.8,3.3-3.8c-0.2-1.2,0.2-2.1,1.1-2.8
			c0.8-0.7,1.6-1.4,2.3-2.3c3.5-4.6,9.1-5.5,13.8-2.2c1.7,1.2,3.5,1,4.7-0.4c1.3-1.6,1.2-3.7-0.1-5.1c-1.5-1.5-3.5-1.4-5.4,0.2
			c-0.6,0.5-1.5,1.1-2.1,1c-5.2-0.8-9.2,1.1-12.4,5.1c-0.8,1-1.7,2-2.7,2.9c-0.5,0.4-1.3,0.7-1.9,0.6
			C148,274.5,146.2,276,146.2,278.3z M289.8,278.6c2.2,0,3.5-1.5,3.6-3.9c0-0.8,0.2-1.9,0.8-2.3c2-1.6,2.5-3.7,2.5-6.1
			c0-2.7-0.1-5.3-0.1-8c0-1.2,0.5-2.2,1.3-3.1c2-2,1.3-4.9-1.5-5.7c-1.7-0.5-3.4,0.1-4.3,1.6c-0.8,1.4-0.8,3.4,0.7,4.4
			c0.6,0.5,1.1,1.5,1.2,2.4c0.1,3.4,0,6.9,0,10.3c0,1.2-0.6,2.2-1.6,2.7c-0.8,0.4-1.7,0.5-2.6,0.6c-2.1,0.2-3.5,1.7-3.5,3.7
			C286.4,277.1,287.9,278.6,289.8,278.6z M268.3,141.3c-0.2-1.5,0.6-2.5,2-3.1c2.9-1.3,5.7-1.1,8.2,0.9c1.3,1,2.7,1.2,3.9,0.4
			c1.4-0.9,2-2.1,1.8-3.8c-0.2-1.5-1.1-2.6-2.5-3c-1.1-0.4-2.4-0.5-3.2,0.6c-1.2,1.5-2.7,1.8-4.5,1.6c-2.4-0.3-4.6,0.3-6.3,2.2
			c-0.5,0.6-1.5,0.8-2.4,1.1c-0.5,0.2-1,0.1-1.5,0.2c-1.6,0.4-2.6,1.6-2.5,3.3c0,1.8,1.1,3.1,2.8,3.4
			C266.6,145.7,268.3,144.2,268.3,141.3z M263.9,340.4c0-2.4-2.4-4.1-4.7-3.4c-1.6,0.5-2.5,1.8-2.5,3.6c0,1.2-0.3,2.2-1.3,3.1
			c-1.3,1.2-2.5,2.6-3.8,3.8c-1.7,1.7-3.3,3.5-6.1,3.5c-1.4,0-2.5,1.1-2.7,2.6c-0.2,1.5,0.3,2.7,1.5,3.5c1.1,0.8,2.4,0.9,3.6,0.3
			c1.5-0.7,1.8-2.1,2-3.6c0.1-0.9,0.3-2,0.9-2.6c1.8-2,3.8-3.7,5.6-5.6c1.1-1.2,2.4-1.7,4-1.7C262.4,344,263.9,342.4,263.9,340.4z
			 M228.9,233.9c1.4,1.6,2.2,2,2.9,1.2c0.5-0.5,1.1-1.1,0.4-1.9C231.4,232.2,230.9,232.3,228.9,233.9z"/>
		<defs>
			<filter id="Adobe_OpacityMaskFilter" filterUnits="userSpaceOnUse" x="142.9" y="72.7" width="104.3" height="226.3">
				<feFlood  style="flood-color:white;flood-opacity:1" result="back"/>
				<feBlend  in="SourceGraphic" in2="back" mode="normal"/>
			</filter>
		</defs>
		<mask maskUnits="userSpaceOnUse" x="142.9" y="72.7" width="104.3" height="226.3" id="SVGID_1_">
			<g class="st1">
			</g>
		</mask>
		<path class="st2" d="M244.4,209.4c0-7.1,0-14.2,0-21.2c0-6.8,0.1-13.6,0.2-20.4c0-1.7-0.6-3-1.7-4.2c-10.2-10.3-20.5-20.7-30.7-31
			c-3-3-5.9-6.1-8.9-9c-1.1-1.1-1.6-2.4-1.6-4c0.1-12.5,0.2-25,0.3-37.5c0-1.4-0.3-2.4-1.5-3.3c-1.3-0.9-1.3-3.2-0.2-4.7
			c1.2-1.5,3.5-1.8,5.1-0.7c2,1.4,2.2,3.5,0.4,5.2c-1.2,1.1-1.3,2.5-1.3,3.9c0,3.8-0.1,7.7-0.1,11.5c0,8.4,0,16.7-0.1,25.1
			c0,1.7,0.5,3,1.7,4.2c12.6,12.7,25.1,25.6,37.8,38.2c2.4,2.4,3.4,4.8,3.3,8.2c-0.3,9.3-0.1,18.6-0.2,27.9
			c-0.1,14.1-0.2,28.2-0.2,42.3c0,4.2-0.1,8.4-0.2,12.6c0,0.8-0.4,1.9-1,2.4c-6,6.1-12.1,12.1-18.2,18.1c-0.6,0.6-1.8,1-2.7,1
			c-11.1,0-22.2,0-33.4-0.1c-1.8,0-3.1,0.5-4.4,1.8c-6.7,6.6-13.4,13.1-20.1,19.6c-0.9,0.8-1.8,1.2-3,1.2c-3.6,0-7.1,0-10.7,0
			c-1.7,0-3.1,0.4-4.4,1.5c-1.6,1.3-3.5,1.3-4.8,0c-1.3-1.3-1.5-3.6-0.3-5.1c1.3-1.7,3.7-1.9,5.3-0.3c1.2,1.1,2.5,1.4,4,1.4
			c3.2,0,6.4-0.1,9.6,0c1.9,0,3.3-0.8,4.7-2.1c6.4-6.2,12.9-12.4,19.3-18.7c1.4-1.3,2.9-1.8,4.8-1.8c10.6,0.1,21.3,0.1,31.9,0.2
			c1.8,0,3.2-0.6,4.5-1.8c4.7-4.8,9.5-9.5,14.3-14.2c1.5-1.5,2.2-3.1,2.2-5.2c0-9.1,0.1-18.2,0.1-27.3c0-4.6,0-9.1,0-13.7
			C244.3,209.4,244.4,209.4,244.4,209.4z M146.5,297.1c1.3-1,1.6-1.8,0.9-2.5c-0.6-0.7-1.3-0.8-2,0
			C144.9,295.3,145.2,296.1,146.5,297.1z M205.3,76.2c-0.8-0.5-1.5-1-2.2-1.2c-0.3-0.1-0.9,0.7-1,1.1c-0.1,0.3,0.4,1,0.8,1.1
			c0.3,0.2,0.9,0,1.3-0.1C204.4,77,204.7,76.6,205.3,76.2z"/>
		<path class="st3" d="M405.1,242.6c-2,1-2.5,2.7-2.5,4.7c0,4.9,0,9.8,0,14.8c0,7.1,0,14.2,0,21.4c-0.1,14.2-0.1,28.5-0.2,42.7
			c0,1.2,0.3,2.3,1.2,3.1c4.2,4.3,8.3,8.7,12.5,13c1.1,1.2,1.6,2.5,1.6,4.1c-0.1,12.2-0.1,24.5-0.2,36.7
			c-0.1,11.6-0.1,23.2-0.2,34.8c0,1.6,0.4,2.9,1.5,4c1,1.1,1.3,2.5,0.6,3.9c-0.7,1.4-2.4,2.1-3.8,1.9c-1.5-0.2-2.8-1.4-3.1-2.9
			c-0.3-1.3,0.2-2.5,1.1-3.4c0.9-0.9,1.2-1.9,1.2-3.1c0.1-11.8,0.2-23.5,0.2-35.3c0.1-12.1,0.1-24.2,0.2-36.2c0-1.7-0.5-3-1.7-4.2
			c-4.1-4.2-8.2-8.5-12.4-12.7c-0.9-1-1.4-2.1-1.4-3.5c0.1-10.7,0.1-21.4,0.2-32c0-7.7,0.1-15.4,0.2-23c0.1-8,0.1-16.1,0.2-24.1
			c0-1.4-0.3-2.6-1.5-3.6c-1.3-1-1.2-3.1-0.1-4.6c1.1-1.5,3.3-1.9,4.8-0.8c0.6,0.4,1.2,1.1,1.8,1.7c0.2-0.2,0.4-0.5,0.7-0.8
			c1.5-1.7,3.9-1.9,5.5-0.4c1.6,1.5,1.4,3.3-0.2,5.1c-0.6,0.7-1.1,1.8-1.1,2.8c-0.1,5.2-0.1,10.5-0.2,15.7
			c-0.1,14-0.1,27.9-0.2,41.9c0,3,0,6.1-0.1,9.1c0,1.3,0.3,2.3,1.3,3.2c1.5,1.4,1.6,2.9,0.5,4.4c-1.1,1.5-3.2,2-4.8,1.1
			c-1.5-0.8-2.3-2.6-1.7-4.3c0.1-0.4,0.3-1,0.7-1.3c1.6-1.3,1.6-3,1.6-4.8c0.1-19.8,0.2-39.6,0.3-59.4c0-1.4-0.1-2.8,0.1-4.2
			C407.8,245.8,406.7,244.1,405.1,242.6z M401.5,243.2c0.4-0.8,1-1.5,1.1-2.3c0.1-0.3-0.8-1.1-1.1-1.1c-0.6,0.1-1.1,0.7-1.6,1.1
			c0.3,0.5,0.4,0.9,0.6,1.2C400.7,242.5,401,242.7,401.5,243.2z M408.4,320.8c1.4-2.1,1.5-2.3,0.7-2.8c-0.5-0.3-1-0.9-1.6-0.1
			C406.8,318.9,406.9,319.4,408.4,320.8z M414.1,424.1c0.9,1.2,1.8,1.6,2.4,1.1c0.5-0.4,1.1-0.9,0.4-1.7
			C416.1,422.5,415.7,422.6,414.1,424.1z M408.8,243.2c1.6-2.1,1.6-2.1-0.1-3.3C406.9,241.5,407.1,240.9,408.8,243.2z"/>
		<path class="st3" d="M306.2,342.4c0-6.8,0-13.5,0-20.3c0-1.6,0.5-2.8,1.6-4c2.4-2.4,4.8-4.9,7.2-7.4c1.2-1.2,1.8-2.7,1.8-4.4
			c0-7,0.1-14,0.2-21c0-7,0-13.9,0.1-20.9c0.1-10.4,0.1-20.8,0.2-31.2c0-1.3-0.4-2.4-1.4-3.3c-4.6-4.6-9.2-9.2-13.9-13.8
			c-1.3-1.2-1.8-2.6-1.8-4.4c0.1-13.1,0.2-26.2,0.3-39.2c0-1.7-0.3-3.2-1.6-4.4c-1.3-1.2-1.2-2.9,0-4.2c1.3-1.5,3.4-1.8,5-0.8
			c1.5,1,2.1,2.9,1.3,4.5c-0.1,0.3-0.3,0.6-0.5,0.8c-1.5,1.2-1.6,2.9-1.6,4.7c0,7.8-0.1,15.6-0.1,23.4c0,5.2,0,10.3-0.1,15.5
			c0,1.3,0.4,2.3,1.3,3.2c4.7,4.7,9.4,9.4,14.1,14.1c1.1,1.1,1.6,2.3,1.6,3.8c-0.1,13.8-0.2,27.5-0.3,41.3c0,3.4-0.1,6.9-0.1,10.3
			c0,7.6-0.1,15.1-0.1,22.7c0,1.3-0.4,2.3-1.3,3.2c-2.7,2.7-5.3,5.4-8,8.1c-0.9,1-1.4,2.1-1.4,3.5c-0.1,13.1-0.1,26.2-0.3,39.2
			c0,2.1,0.5,3.7,2,5.2c1.8,1.7,3.4,3.6,5.3,5.2c2,1.6,4.5,1.7,7,1.4c3.4-0.4,6.1-2.3,8.5-4.6c1-0.9,1.8-2,2.8-2.8
			c1-0.9,1.3-2,1.3-3.2c0-7.6,0-15.3,0.1-22.9c0-1.1-0.5-1.9-1.3-2.7c-1.9-2.1-1.3-5,1-6c1.7-0.7,3.7,0,4.7,1.5
			c0.9,1.4,0.7,2.8-0.7,4.2c-1,1-1.3,2.2-1.3,3.5c0,7.5-0.1,15,0,22.6c0,1.7-0.5,3-1.8,4.1c-2.6,2.4-5.1,4.8-7.6,7.3
			c-1,1-2.2,1.5-3.6,1.5c-2.2-0.1-4.5,0.1-6.7-0.1c-1-0.1-2.1-0.5-2.8-1.1c-2.9-2.7-5.6-5.5-8.4-8.3c-0.9-0.9-1-2-1-3.2
			c0-6.8,0-13.7,0-20.5C306,342.4,306.1,342.4,306.2,342.4z M301.9,168.3c1.3-1.9,1.5-2.5,0.6-3.1c-0.8-0.6-1.4-0.1-1.8,0.5
			C299.7,167.2,301.6,167.3,301.9,168.3z M336.8,335.9c0.5-0.7,1-1.2,1.2-1.9c0.1-0.2-0.8-1-1.1-1c-0.7,0.2-1.4,0.7-2.2,1.2
			C335.5,334.9,336.1,335.4,336.8,335.9z"/>
		<path class="st3" d="M252.3,199.6c0-18,0.4-34.9,0.5-52.8c0-2.5-0.7-4.2-2.4-5.9c-6.3-6.3-12.6-12.6-18.9-18.9
			c-1-1-1.5-2.2-1.4-3.5c0.1-5.5,0.1-11,0.2-16.6c0-6,0.1-12.1,0.1-18.1c0-1.1-0.2-2-1.1-2.8c-1.5-1.3-1.7-3.1-0.7-4.7
			c1-1.5,3.1-2,4.8-1.2c2.3,1.2,2.7,3.7,0.9,5.5c-1,0.9-1.4,2-1.4,3.3c0,11.5-0.1,23-0.1,34.4c0,1.4,0.6,2.4,1.6,3.4
			c4.4,4.5,8.8,8.9,13.2,13.4c2.2,2.3,4.5,4.5,6.7,6.9c0.6,0.7,1.1,1.8,1.1,2.7c0,11.4,0,22.7-0.1,34.1c0,8.4-0.1,16.9-0.2,25.3
			c-0.1,16.6-0.2,33.1-0.2,49.7c0,1,0.1,2-0.1,3c-0.2,1-0.6,2.1-1.2,2.8c-7.6,7.6-15.3,15.2-23,22.8c-0.9,0.9-2.1,1.1-3.3,1
			c-6.9,0-13.8-0.1-20.6-0.2c-1.6,0-2.9,0.3-4.1,1.6c-1.2,1.3-2.9,1.3-4.2,0.3c-1.5-1.1-1.9-3.2-1.1-4.9c0.8-1.5,2.7-2.3,4.3-1.7
			c0.5,0.2,1.1,0.5,1.5,0.9c0.9,0.9,2,1.3,3.3,1.3c6.9,0,13.8,0,20.6,0.1c1.4,0,2.5-0.4,3.5-1.4c6.7-6.7,13.5-13.4,20.3-20.1
			c1-1,1.5-2.1,1.5-3.5c0-7.1,0.1-14.2,0.1-21.4c0-11.2,0-22.5,0-33.7C252.5,200.6,252.2,199.6,252.3,199.6z M200.5,280.5
			c-2.1,1-2.1,1.7-0.2,3.2C201.9,282,201.9,281.8,200.5,280.5z M231.7,80.2c0.3-0.5,0.6-0.9,0.9-1.3c0.7-0.8,0.2-1.2-0.3-1.7
			c-0.7-0.6-1.2-0.1-1.6,0.3c-0.6,0.5-0.4,1.1,0.1,1.6C231.1,79.4,231.4,79.8,231.7,80.2z"/>
		<path class="st3" d="M277.5,243.3c0,1.8,0,3.5,0,5.1c0,5.6-0.1,11.1-0.1,16.7c-0.1,12.6-0.1,25.3-0.2,37.9
			c-0.1,16.5-0.2,33-0.2,49.4c0,2.2-0.1,4.3-0.1,6.5c0,1.5-0.5,2.7-1.6,3.7c-3.9,3.8-7.8,7.5-11.7,11.4c-1.4,1.4-3,2-4.9,2
			c-4.2-0.1-8.5-0.1-12.7-0.1c-1.7,0-3.1-0.6-4.3-1.8c-6.9-7-13.9-14-20.8-21.1c-0.9-0.9-1.9-1.5-3.3-1.3c-1.8,0.2-3.6-1.7-3.7-3.6
			c0-2,1.5-3.6,3.6-3.6c2.1,0,3.9,1.5,3.6,3.5c-0.2,1.7,0.4,2.7,1.5,3.7c6.3,6.3,12.6,12.5,18.7,18.9c2.1,2.2,4.5,3,7.5,2.4
			c0.9-0.2,2,0.2,2.9,0.2c2.3,0,4.6-0.1,6.8,0c1.7,0.1,3-0.6,4.2-1.7c3.2-3.1,6.4-6.4,9.7-9.4c1.5-1.4,1.9-2.9,1.9-4.7
			c0-12.2,0-24.3,0-36.5c0-15,0.1-30,0.2-45.1c0.1-11,0.2-22,0.2-33.1c0-1.8,0.5-2.3,2.2-2.3c7.1,0,14.2,0,21.2,0
			c1.7,0,3.1-0.5,4.3-1.5c1.5-1.2,3.5-1.2,4.6,0c1.6,1.7,1.6,4,0.2,5.5c-1.4,1.4-3.7,1.6-5,0.1c-1.1-1.2-2.4-1.4-3.8-1.4
			c-6.5,0-13,0-19.6-0.1C278.6,243.3,278.2,243.3,277.5,243.3z M305,243.7c0.6-0.9,2-1.3,0.8-2.5c-0.7-0.7-1.5-0.4-2.8,1
			C303.6,242.7,304.2,243.2,305,243.7z M217.5,350.3c1.6-1.4,1.8-2,1.1-2.8c-0.6-0.7-1.1-0.5-1.6,0
			C215.4,348.7,217.2,349.3,217.5,350.3z"/>
		<path class="st3" d="M328,355.4c-2.1,0-3.5-0.9-4-2.4c-0.5-1.5-0.2-2.9,1.1-4c0.8-0.6,1.1-1.4,1.1-2.4c0-2.5,0-5,0-7.4
			c0.1-18.4,0.2-36.8,0.2-55.2c0.1-15.3,0.2-30.6,0.2-45.8c0-1.5,0.5-2.7,1.6-3.7c5.3-5.1,10.5-10.3,15.8-15.5
			c7.4-7.3,14.8-14.6,22.2-21.9c0.9-0.9,1.5-2,1.5-3.3c0-1.9,0.1-3.8,0.1-5.6c0-6.6,0.1-13.2,0.1-19.8c0-4.8,0-9.7,0.1-14.5
			c0-1.6-0.3-2.8-1.4-4c-1.6-1.8-1.2-4.2,0.6-5.5c1.7-1.2,4.2-0.6,5.4,1.2c0.9,1.4,0.6,2.7-0.4,3.9c-1.2,1.4-1.6,3-1.6,4.9
			c0,13.3-0.1,26.6-0.2,39.8c0,1.2-0.4,2.3-1.3,3.1c-8.9,8.7-17.7,17.4-26.6,26.2c-4,3.9-7.9,7.8-11.8,11.8
			c-0.8,0.8-1.3,2.2-1.3,3.3c-0.2,5.3-0.2,10.6-0.2,16c-0.1,11.9-0.1,23.8-0.2,35.8c-0.1,14-0.2,27.9-0.2,41.9
			c0,4.6-0.1,9.2-0.2,13.8c0,1.4,0.3,2.6,1.4,3.7c1.1,1,1.5,2.3,0.8,3.7C330.3,354.7,329.1,355.4,328,355.4z M329.7,352
			c-1.1-0.4-1.6-2.3-3.1-0.9c-0.7,0.6-0.5,1.2,0,1.7C327.9,354,328.5,352.3,329.7,352z M369.4,149.2c1.7-2.2,1.6-2.6-0.3-3.2
			C367.7,147.3,367.7,147.8,369.4,149.2z"/>
		<path class="st3" d="M357.7,355.6c-1.6,0-2.8-0.8-3.3-2.2c-0.6-1.6-0.2-2.9,1-4.1c0.6-0.6,1.1-1.6,1.1-2.4
			c0.1-6.6,0.1-13.2,0.1-19.8c0-1.5-0.7-2.5-1.6-3.5c-3.2-3.3-6.3-6.6-9.6-9.9c-1.2-1.3-1.8-2.7-1.8-4.5c0.1-17.5,0.2-35,0.3-52.5
			c0-6.6,0.1-13.2,0.2-19.8c0-0.9,0.5-2.1,1.1-2.8c6.7-6.7,13.5-13.3,20.2-20c4.7-4.6,9.3-9.2,14-13.8c1-1,2-2,3-2.9
			c1.2-1.1,1.6-2.4,1.6-4c0-3.8,0-7.6,0.1-11.4c0.1-9.6,0.1-19.3,0.2-28.9c0-1.2-0.3-2.2-1.2-3c-1.5-1.4-1.6-2.9-0.6-4.5
			c0.9-1.5,2.9-2.1,4.5-1.4c2.5,1,3,3.6,1.1,5.4c-1.1,1.1-1.4,2.3-1.4,3.8c0,6.5,0,13,0,19.5c0,7.2-0.1,14.3-0.1,21.5
			c0,1.3-0.5,2.3-1.4,3.2c-12.3,12.1-24.6,24.2-37,36.3c-1.3,1.2-1.8,2.6-1.8,4.4c0,7.1,0,14.2,0,21.4c-0.1,16.5-0.1,33-0.3,49.5
			c0,1.6,0.5,2.8,1.6,4c3.4,3.5,6.7,7.1,10.1,10.6c0.9,0.9,1.2,2,1.2,3.2c0,6.6-0.1,13.2-0.1,19.8c0,1.1,0.3,2.1,1.2,2.9
			c1.3,1.2,1.6,2.3,1,3.7C360.5,354.7,359.3,355.6,357.7,355.6z M356.3,351.8c0.9,2,1.7,2,3.3,0.2
			C357.5,350.4,357.5,350.4,356.3,351.8z M385.3,148.7c0.6-0.5,1.1-1,1.6-1.4c-1.3-1.5-1.3-1.5-3.4,0
			C384.3,147.9,384.9,148.3,385.3,148.7z"/>
		<path class="st3" d="M315.3,147.6c10,0,20.1,0,30.1,0c1.5,0,2.7-0.5,3.8-1.6c4.6-4.7,9.3-9.3,14-14c1-1,2.1-1.4,3.5-1.4
			c13,0.1,25.9,0.1,38.9,0.2c1.2,0,2.2-0.3,3-1.2c1.5-1.6,3.3-1.7,4.8-0.4c1.4,1.3,1.6,3.7,0.4,5.2c-1.2,1.5-3.5,1.9-4.9,0.5
			c-1.5-1.5-3.2-1.6-5.1-1.6c-12.2,0-24.5-0.1-36.7-0.2c-1.4,0-2.5,0.5-3.4,1.4c-4.6,4.6-9.3,9.2-13.9,13.8c-1.1,1.2-2.4,1.7-4,1.7
			c-14.1-0.1-28.2-0.1-42.2-0.1c-5.9,0-11.8,0-17.6-0.1c-1.7,0-3.1,0.5-4.3,1.7c-3,3.1-6.1,6.2-9.1,9.4c-0.7,0.8-1.2,2-1.2,3
			c-0.2,3.1-0.2,6.2-0.2,9.4c0,5.9,0,11.8-0.1,17.6c0,1.5,0.3,2.8,1.4,4c1.5,1.6,1.2,4-0.3,5.2c-1.6,1.3-4,1-5.4-0.6
			c-1.1-1.3-1.1-3.1,0.2-4.3c1.2-1.1,1.6-2.4,1.6-4c0-6.6,0-13.1,0.1-19.7c0-2.7,0-5.4,0.1-8.2c0.1-1,0.5-2.1,1.1-2.8
			c3.2-3.4,6.5-6.7,9.8-10.1c0.1-0.1,0.1-0.1,0.2-0.2c3.5-3.6,2.4-3.3,8.1-3.2c3.8,0,7.7,0.1,11.5,0.1c5.3,0,10.6,0,16,0
			C315.3,147.5,315.3,147.5,315.3,147.6z M413.1,132.1c-1-0.3-1.2-2.1-2.6-1c-0.6,0.5-1,1-0.4,1.8
			C410.8,133.7,411.4,133.6,413.1,132.1z M271.2,197.5c-0.8-0.5-1.2-1.9-2.3-0.9c-0.9,0.7-0.7,1.3,0.9,2.9
			C270.2,198.8,270.6,198.2,271.2,197.5z"/>
		<path class="st3" d="M301.3,128.7c-3.1,0-6,0-8.9,0c-9.1,0-18.2-0.1-27.2-0.1c-1.3,0-2.6-0.1-4-0.1c-1.6,0.1-2.9-0.5-4.1-1.7
			c-4.5-4.6-9.1-9.2-13.7-13.8c-1-1-1.5-2.2-1.5-3.7c0-8.6,0-17.2,0.1-25.8c0-1.2-0.3-2-1.3-2.8c-1.5-1.2-1.5-3.5-0.1-5
			c1.4-1.5,3.9-1.5,5.4-0.1c1.4,1.4,1.4,3.5-0.1,4.9c-0.9,0.8-1.4,1.8-1.4,3.1c0,8.4-0.1,16.7-0.2,25.1c0,1.6,0.5,2.9,1.7,4.1
			c3.7,3.7,7.4,7.4,11,11.1c1.5,1.6,3.3,2.3,5.4,2.3c8.4,0,16.9,0,25.3,0.1c4.6,0,9.1,0.1,13.7,0.1c2.1,0,2.5,0.4,2.5,2.5
			c0,1.9-0.2,3.9,0,5.8c0.1,1,0.5,2.3,1.2,3c1.6,1.4,1.5,3.5,0.2,4.8c-1.5,1.5-3.8,1.6-5.3,0.2c-1.6-1.5-1.5-3.9,0.2-5.4
			c0.5-0.5,1-1.3,1-2C301.4,132.9,301.3,130.9,301.3,128.7z M302.3,141.8c1.7-1.6,1.9-1.9,1.2-2.7c-0.5-0.5-1.1-0.9-1.7-0.3
			C300.4,140.1,302,140.8,302.3,141.8z M243.3,80.1c1.4-1.7,1.8-1.8,1-2.6c-0.4-0.4-0.7-1-1.5-0.4C241.8,77.9,241.8,77.9,243.3,80.1
			z"/>
		<path class="st3" d="M292.1,332.7c0,5.2,0.1,10.5,0,15.7c0,1.7,0.4,3.1,1.5,4.4c1.2,1.4,1.2,2.9,0.2,4.3c-1,1.4-2.6,1.9-4.3,1.3
			c-1.4-0.5-2.1-1.5-2.3-3c-0.2-1.3,0.2-2.3,1.3-3.3c0.6-0.5,1-1.5,1-2.3c0.1-2.9,0.1-5.8,0.1-8.8c0-8.4,0.1-16.7,0.1-25.1
			c0-2.1,0.7-3.5,2.2-4.9c5.7-5.5,11.2-11.1,16.8-16.6c1-1,1.5-2.2,1.5-3.7c0-10.4,0.1-20.9,0.2-31.3c0-1.6-0.3-2.8-1.4-4
			c-1.6-1.7-1.2-4.2,0.6-5.5c1.7-1.2,4.2-0.6,5.3,1.2c0.8,1.3,0.7,2.9-0.4,3.8c-1.4,1.2-1.7,2.6-1.7,4.3c0,5,0,10.1,0,15.1
			c0,5.6,0,11.3,0,16.9c0,1.5-0.4,2.7-1.5,3.7c-5.8,5.6-11.5,11.3-17.2,16.9c-1.2,1.2-1.8,2.6-1.8,4.3c0,5.5,0,11,0,16.4
			C292.2,332.7,292.2,332.7,292.1,332.7z M311.5,255c0.4-0.5,0.8-0.8,1-1.1c0.2-0.3,0.5-0.7,0.5-1c-0.1-0.4-0.4-0.7-0.7-1
			c-0.6-0.6-1,0-1.4,0.3C309.6,253.4,311.3,254,311.5,255z M290.7,353.5c-1.5,1.4-1.5,1.4,0.1,3.4c0.5-0.7,1-1.3,1.5-2
			C291.6,354.4,291.1,353.9,290.7,353.5z"/>
		<path class="st3" d="M370.5,282.3c-1.8,0-2.9-0.7-3.7-2c-0.7-1.2-0.5-2.5,0.4-3.5c1.5-1.6,1.7-3.5,1.7-5.5c0-3.4,0.1-6.9,0.1-10.3
			c0-1.2,0.5-2.2,1.4-3.1c2-2,4.1-4,6.1-5.9c1-1,1.4-2.2,1.4-3.6c0-5.4,0.1-10.7,0.1-16.1c0-3.3,0.1-6.6,0.1-10
			c0-1.5,0.6-2.7,1.6-3.7c7.8-7.7,15.6-15.5,23.5-23.2c1-1,1.5-1.9,1.3-3.3c-0.3-2,1.1-3.5,3.1-3.7c1.9-0.2,3.6,1,4,2.9
			c0.4,1.8-0.7,3.5-2.6,4c-0.2,0-0.3,0.1-0.5,0.1c-2.4-0.4-3.7,1.2-5.2,2.7c-7.2,7.1-14.3,14.3-21.5,21.4c-0.9,0.9-1.3,2-1.3,3.2
			c0,5.4,0,10.8-0.1,16.2c0,3.5,0,7-0.2,10.5c-0.1,1-0.7,2.2-1.3,2.9c-1.9,2.1-4,4.1-6,6c-1,1-1.5,2.1-1.5,3.4c0,3.8,0,7.7,0,11.5
			c0,1.1,0.5,1.9,1.2,2.6c2,2.1,1.3,5.2-1.3,6.1C371.1,282.2,370.7,282.3,370.5,282.3z M370.2,280.6c1.6-1.4,1.7-1.7,1.1-2.5
			c-0.5-0.5-0.9-1.1-1.7-0.4C368.7,278.5,368.8,279.1,370.2,280.6z M406.8,191.9c0.5,0.7,0.9,1.3,1.4,2c1.8-1.7,1.8-2,0.2-3.4
			C407.9,191,407.4,191.4,406.8,191.9z"/>
		<path class="st3" d="M264.7,281.9c0-6.2,0-12.5,0-18.7c0-1.2-0.3-2.2-1.3-3c-1.5-1.2-1.4-3.6,0-5c1.4-1.5,3.9-1.4,5.4,0.1
			c1.5,1.5,1.5,3.3-0.1,4.7c-0.9,0.9-1.4,1.8-1.4,3.1c0,4.8-0.1,9.5-0.1,14.3c0,8-0.1,16,0,24c0,1.8-0.6,3.3-1.9,4.5
			c-5.6,5.3-11.1,10.6-16.6,15.9c-1.1,1.1-2.3,1.7-3.9,1.6c-1.8-0.1-3.6-0.2-5.4,0c-1.1,0.1-2.3,0.6-3.2,1.3
			c-1.5,1.2-2.5,1.5-3.9,0.8c-1.5-0.8-2.3-2.6-1.9-4.2c0.3-1.4,1.3-2.4,2.7-2.8c1.4-0.4,2.5,0,3.6,1.1c0.6,0.6,1.6,1,2.5,1.2
			c4.9,1,9-0.7,12.4-4.2c3.7-3.8,7.4-7.5,11.2-11.2c1.3-1.2,1.8-2.6,1.8-4.4c0-6.3,0-12.6,0-18.9
			C264.5,281.9,264.6,281.9,264.7,281.9z M235.7,322c-1.9-1.8-2.5-1.7-3.3,0.2C233.7,323.6,234,323.6,235.7,322z M268.1,257.4
			c-1.1-0.2-1.5-1.9-2.7-0.8c-0.5,0.4-0.9,1.1-0.3,1.7C265.8,259.2,266.1,259.1,268.1,257.4z"/>
		<path class="st3" d="M219.1,306.7c0,4.9,0,9.8,0,14.6c0,0.9,0.4,2,1,2.6c5.4,5.6,10.8,11,16.2,16.5c0.8,0.9,1.9,0.9,3,0.9
			c1.5,0,2.8,1,3.3,2.3c0.5,1.4,0.1,2.9-1.1,3.9c-1.1,1-2.7,1.2-4,0.5c-1.4-0.7-2-1.8-1.8-3.3c0.1-1.3-0.3-2.2-1.2-3.1
			c-5.4-5.5-10.8-11-16.3-16.5c-1.2-1.2-1.8-2.7-1.8-4.4c0.1-8.9,0.1-17.7,0.2-26.6c0-1.9,0-1.9-1.9-1.9c-2.7,0-5.4,0.1-8.2,0
			c-1.4,0-2.4,0.3-3.4,1.3c-1,1.1-2.4,1.3-3.8,0.8c-1.4-0.5-2.1-1.5-2.3-3c-0.2-1.6,0.5-2.8,1.8-3.7c1.2-0.8,2.5-0.8,3.5,0.1
			c2.1,1.9,4.6,2,7.2,1.9c2.4,0,4.8,0,7.2,0c2.1,0,2.6,0.5,2.6,2.6c-0.1,3.3-0.1,6.6-0.2,9.9C219.1,303.7,219.1,305.2,219.1,306.7
			C219.1,306.7,219.1,306.7,219.1,306.7z M237.2,344.7c0.4,0.4,0.8,0.8,1.2,1.1c0.3,0.2,0.8,0.3,1,0.2c0.5-0.3,1-0.8,1.1-1.3
			c0.1-0.3-0.6-0.9-1-1.1c-0.3-0.1-0.8,0.1-1.2,0.3C237.9,344.2,237.6,344.5,237.2,344.7z M200.8,292.9c0.4-1.1,2.1-1.8,0.6-3.1
			c-0.7-0.6-1.3-0.1-1.6,0.4C198.8,291.5,200.1,292,200.8,292.9z"/>
		<path class="st3" d="M302.3,229.4c-2.3,0-3.9-1.7-3.5-3.9c0.2-1.1-0.3-1.8-1-2.6c-2.5-2.5-4.9-5-7.4-7.5c-1.1-1.1-1.6-2.4-1.6-4.1
			c0.1-12.8,0.1-25.5,0.1-38.3c0-1.6-0.3-2.9-1.4-4.1c-1.4-1.5-1.2-3.9,0.3-5.2c1.5-1.4,3.8-1.2,5.3,0.4c1.3,1.4,1.3,3.3-0.2,4.6
			c-1.1,0.9-1.4,2-1.4,3.4c0,12.7-0.1,25.4-0.1,38.1c0,0.7,0.3,1.6,0.8,2.1c2.2,2.8,4.4,5.5,6.6,8.2c0.9,1.1,1.9,1.7,3.4,1.7
			c2.4,0,3.8,1.4,3.8,3.5C305.9,227.9,304.4,229.4,302.3,229.4z M288.1,166.4c0.9,0.4,1.2,1.8,2.5,1.1c0.5-0.3,1.3-0.9,0.6-1.7
			C290.5,164.8,290,164.9,288.1,166.4z M304.6,225.9c-1.3-0.2-1.6-2.3-3-0.9c-0.5,0.5-0.7,1.1-0.2,1.7
			C302.6,228,303.3,226.4,304.6,225.9z"/>
		<path class="st3" d="M337.5,314.7c-1.5,0-2.6-0.6-3.3-2c-0.7-1.4-0.6-2.9,0.5-3.9c1.4-1.4,1.6-3.1,1.6-5c0-5.6,0-11.2,0.1-16.8
			c0.1-10.3,0.1-20.5,0.2-30.8c0-1.5-0.4-2.7-1.4-3.8c-1.5-1.7-1.3-4.1,0.2-5.4c1.6-1.3,4.1-1,5.4,0.7c1.1,1.4,1,3.1-0.3,4.3
			c-1.1,1-1.4,2.1-1.4,3.5c0,12.4-0.1,24.8-0.2,37.2c0,4.3-0.1,8.5-0.2,12.8c0,1.2,0.3,2.3,1.2,3.1c1.3,1.2,1.6,2.5,1,3.8
			C340.4,313.8,339.1,314.7,337.5,314.7z M339.9,249.8c-0.7-0.5-1.5-0.9-2.2-1.4c-0.2,0.2-0.3,0.3-0.4,0.4c-0.7,0.6-1,1.2-0.3,1.9
			c0.7,0.7,1.3,0.4,1.9-0.2C339.2,250.2,339.6,250,339.9,249.8z M338.9,311.2c-1.6-1.7-2.1-1.7-3.3,0.2
			C337.9,312.9,337.2,312.9,338.9,311.2z"/>
		<path class="st3" d="M202.5,333.5c-2,0-3.9,0-5.8,0c-9.8,0-19.7-0.1-29.5-0.1c-1.3,0-2.6,0-4,0c-1.1,0-2,0.4-2.8,1.2
			c-1.6,1.7-3.3,1.8-4.8,0.4c-1.6-1.5-1.7-3.7-0.4-5.3c1.4-1.5,3.6-1.8,5.1-0.3c1.1,1.1,2.2,1.4,3.7,1.4c2.7-0.1,5.4,0.1,8,0.1
			c9.1,0,18.1,0.1,27.2,0.1c0.2,0,0.3,0,0.6-0.1c0-0.8-0.1-1.5,0-2.2c0.1-1.9-0.4-4.6-0.1-6.8c0.3-1.9,0.3-2.9-0.9-3.9
			c-1.7-1.5-1.8-3.9-0.2-5.4c1.5-1.5,3.9-1.4,5.4,0.2c1.2,1.3,1.3,3,0,4.5c-1.2,1.4-1.7,3-1.6,4.9c0.1,1.9,0.2,3.8,0.1,5.7
			C202.4,331.5,202.5,331.6,202.5,333.5z M159.2,332.3c-1-2-1.6-2.1-3.2-0.3C157.9,333.6,157.8,334,159.2,332.3z M201.2,313.6
			c-0.4,0.4-0.7,0.7-1,1.1c-0.1,0.2-0.2,0.4-0.3,0.6c1.3,1.4,1.3,1.4,3.4-0.3c-0.3-0.2-0.7-0.4-1-0.6
			C202,314.1,201.7,313.9,201.2,313.6z"/>
		<path class="st3" d="M268.5,336.8c0-4,0-8.1,0-12.1c0-3.2-0.9-4.1-4.1-4.3c-2-0.2-3.3-1.6-3.3-3.5c0-1.9,1.3-3.3,3.2-3.5
			c1.9-0.2,3.6,1.1,3.9,2.9c0,0,0,0.1,0,0.1c-0.7,2.1,0.5,3.3,1.8,4.7c0.7,0.7,0.9,2.1,0.9,3.1c0,8.7-0.1,17.4-0.3,26.1
			c0,1-0.6,2.1-1.3,2.8c-2.8,2.9-5.7,5.7-8.6,8.5c-0.3,0.3-0.9,0.6-1.4,0.5c-1.8-0.1-3.2,0.6-4.5,1.6c-1.4,1.1-2.4,1.2-3.6,0.5
			c-1.4-0.8-2.1-2.3-1.8-4c0.2-1.5,1.2-2.6,2.6-2.9c1.4-0.3,2.6,0,3.6,1c2,1.9,3.4,1.9,5.3,0c2-2,3.9-4,5.9-6
			c0.9-0.9,1.2-1.9,1.2-3.2c0-4.2,0-8.4,0-12.6C268.4,336.8,268.5,336.8,268.5,336.8z M251.2,361.1c1.6,1.6,2.2,2.1,3.3-0.2
			C253,359.3,253.4,359.5,251.2,361.1z M264.7,318.8c1.5-1.9,1.6-2.3,0.7-3c-0.9-0.7-1.4,0.1-1.7,0.6
			C262.9,317.7,264.3,318,264.7,318.8z"/>
		<path class="st3" d="M261.2,188.1c0-6.8,0-13.6,0-20.4c0-0.6-0.5-1.3-1-1.8c-1.3-1.2-1.8-2.6-1.1-4.2c0.6-1.5,2.1-2.4,3.6-2.3
			c1.7,0.1,3.2,1.3,3.6,2.9c0.2,1.2-0.1,2.2-1,2.9c-1.2,1-1.5,2.3-1.5,3.7c0,9,0,18-0.1,27c0,4.1-0.1,8.2-0.2,12.3
			c0,1.2,0.4,2.1,1.3,3c1.5,1.4,1.7,3.1,0.6,4.6c-1.1,1.4-3.3,1.9-4.9,1.1c-1.6-0.9-2.3-2.8-1.6-4.5c0.1-0.2,0.1-0.4,0.3-0.5
			c2.2-1.9,1.9-4.6,1.9-7.1c0-5.6,0-11.1,0-16.7C261,188.1,261.1,188.1,261.2,188.1z M264.5,163c-1-0.3-1.6-2.2-2.9-0.8
			c-0.2,0.3-0.2,1.1,0,1.4C262.9,165.4,263.5,163.3,264.5,163z M264.2,213.7c-0.7-0.5-1.3-1.2-2-1.2c-0.6,0-1.2,0.7-1.8,1.1
			C262.1,215.4,262.4,215.4,264.2,213.7z"/>
		<path class="st3" d="M299,344.6c0,5.5,0,11,0,16.6c0,1.9-0.5,3.4-2.2,4.5c-0.9,0.6-1.2,1.5-1,2.6c0.3,2.1-0.9,3.7-3,3.9
			c-2,0.2-3.8-1.1-4-2.9c-0.3-2.2,1-3.9,3.2-4.1c0.3,0,0.6,0,1,0c2.2-0.2,3.3-1.3,3.4-3.5c0.1-1.2,0.1-2.5,0.1-3.7
			c0-10.1,0-20.2,0.1-30.4c0-1.2-0.3-2.1-1.3-2.9c-1.5-1.2-1.5-3.4-0.1-4.9c1.4-1.5,3.8-1.6,5.4-0.1c1.5,1.4,1.6,3.3,0.1,4.7
			c-1.1,1.1-1.5,2.3-1.5,3.8c0,5.5,0,11,0,16.4C299,344.6,299,344.6,299,344.6z M297.6,324.1c2.1-1.6,1.8-2.3,0.3-3.4
			C296.1,321.6,296.1,321.6,297.6,324.1z M290.1,368.7c2.2,1.4,2.7,1.5,3.2,0.5c0.2-0.4-0.1-1.3-0.5-1.5
			C291.6,366.9,291.1,368.3,290.1,368.7z"/>
		<path class="st3" d="M333.2,215.3c-1.6,0-3.1-1-3.6-2.5c-0.5-1.6-0.1-2.9,1.3-4c1.2-0.9,1.2-1.5,0.1-2.6
			c-3.7-3.7-7.4-7.3-11.1-10.9c-0.5-0.5-1-1-1.5-1.5c-1.5-1.3-2-2.9-1.9-4.8c0.1-4.2,0.1-8.4,0.2-12.6c0-1.3-0.3-2.3-1.3-3.3
			c-1.6-1.5-1.4-3.3,0.1-5c1.3-1.5,3.8-1.4,5.2,0c1.6,1.6,1.6,3.4,0,4.9c-1,0.9-1.3,2-1.3,3.2c0,4.5-0.1,9,0,13.5
			c0,0.9,0.4,1.9,1,2.6c3.2,3.4,6.5,6.6,9.8,9.9c2.4,2.4,4.9,4.8,6.4,8C337.5,212.8,336,215.3,333.2,215.3z M317.9,172.6
			c1.5-1.4,1.7-2.2,0.8-2.9c-1.3-1.1-1.6,0.4-2.3,0.8c0.1,0.3,0.2,0.6,0.4,0.8C317.1,171.8,317.5,172.2,317.9,172.6z M333.3,213.6
			c1.4-2.1,1.4-2.1,0.1-3.3C331.4,211.3,331.4,212,333.3,213.6z"/>
		<path class="st3" d="M276.5,209.4c0-3.1,0-6.2,0-9.4c0-1.4-0.5-2.6-1.4-3.7c-1-1.1-1.3-2.5-0.6-3.9c0.7-1.4,2-2,3.6-1.9
			c1.4,0.1,2.5,0.8,3.1,2.1c0.6,1.4,0.4,2.9-0.7,3.9c-1.2,1.2-1.5,2.6-1.5,4.2c0,6.1-0.1,12.2-0.1,18.2c0,1.4-0.5,2.6-1.5,3.6
			c-2.7,2.7-5.5,5.4-8.2,8.1c-0.9,0.9-1.5,1.9-1.5,3.3c0,2-1.3,3.5-3,3.8c-1.5,0.3-3.1-0.6-3.8-2.1c-0.5-1.2-0.5-2.4,0.3-3.5
			c0.8-1.1,1.9-1.7,3.2-1.4c1.4,0.3,2.3-0.2,3.2-1.1c2.4-2.5,4.9-4.9,7.4-7.3c1-1,1.5-2.1,1.5-3.5
			C276.3,215.6,276.4,212.5,276.5,209.4C276.4,209.4,276.4,209.4,276.5,209.4z M279.3,194c-0.6-0.4-1.1-1-1.7-1.2
			c-0.2-0.1-1.1,0.7-1.1,1c0.2,0.8,0.7,1.5,1.2,2.4C278.3,195.4,278.8,194.8,279.3,194z M264.2,232.9c-2.1,0.8-1.8,1.6-0.2,3.2
			C265.7,234.5,265.7,234.2,264.2,232.9z"/>
		<path class="st3" d="M252.7,281.5c0,2-1.5,3.6-3.7,3.6c-1.6,0-2.8,0.6-3.9,1.7c-4.5,4.5-9,9-13.6,13.4c-1.4,1.4-2.2,2.9-2,5
			c0.1,1.7,0,3.4,0,5.2c0,1.2,0.3,2.2,1.3,3.1c1.5,1.4,1.7,2.9,0.7,4.4c-1,1.5-3,2-4.7,1.3c-1.6-0.7-2.5-2.4-2-4.1
			c0.1-0.5,0.3-1.2,0.7-1.5c1.6-1.3,1.6-3.1,1.6-4.9c0-1.6,0.1-3.3,0.1-4.9c0-1.4,0.6-2.4,1.6-3.4c5.2-5.1,10.3-10.3,15.4-15.4
			c0.9-0.9,1.4-1.8,1.4-3c0-0.7,0.2-1.4,0.5-2.1c0.7-1.4,2.6-2.2,4.1-1.8C251.5,278.4,252.7,280,252.7,281.5z M230.3,315.9
			c-0.4-0.3-0.8-0.6-1.2-0.9c-0.7-0.7-1.3-0.6-1.9,0.1c-0.6,0.6-0.1,1.1,0.2,1.5c0.6,0.7,1.2,0.6,1.9,0
			C229.6,316.4,229.9,316.2,230.3,315.9z M248.9,283c1.9-1.2,1.9-1.5,0.3-2.9c-0.7,0.4-1.4,0.9-2.1,1.3
			C247.7,281.9,248.3,282.5,248.9,283z"/>
		<path class="st3" d="M382.9,279.1c1.9,0,3.4,1,3.9,2.4c0.6,1.5,0,2.6-1.1,3.8c-0.6,0.7-1.1,1.7-1.2,2.6
			c-0.2,5.2-0.2,10.4-0.2,15.6c0,1.2,0.3,2.2,1.3,3.1c1.8,1.6,1.8,3.1,0,4.7c-1.7,1.6-3.6,1.6-5.1,0.2c-1.5-1.4-1.4-3.5,0.2-5.2
			c0.8-0.9,1.2-1.8,1.2-3c0-4.8,0-9.6,0.1-14.4c0-1.4-0.3-2.5-1.3-3.6c-1.1-1.2-1.4-2.6-0.6-4.1
			C380.6,279.7,381.7,279.1,382.9,279.1z M383.4,281.3c-2,1-2,1.3-0.1,3.3C384.9,283,385,282.7,383.4,281.3z M381.7,309.2
			c1.1,1.4,1.5,1.5,3.2-0.2C383,306.8,382.3,307.7,381.7,309.2z"/>
		<path class="st3" d="M146.2,278.3c0-2.3,1.8-3.8,4.1-3.5c0.6,0.1,1.4-0.2,1.9-0.6c1-0.9,1.9-1.9,2.7-2.9c3.2-4,7.2-5.9,12.4-5.1
			c0.7,0.1,1.6-0.5,2.1-1c1.8-1.6,3.9-1.7,5.4-0.2c1.4,1.4,1.4,3.6,0.1,5.1c-1.2,1.5-3,1.6-4.7,0.4c-4.7-3.3-10.3-2.4-13.8,2.2
			c-0.6,0.8-1.5,1.6-2.3,2.3c-0.9,0.8-1.3,1.6-1.1,2.8c0.3,2.1-1.2,3.8-3.3,3.8C147.9,282,146.2,280.4,146.2,278.3z M149.7,280.6
			c0.5-1.1,1.9-1.6,1-2.8c-0.5-0.7-1.2-1.1-1.9-0.3C147.5,278.8,149.5,279.3,149.7,280.6z M172.5,269.8c1.2-1.9,1.3-2.6,0.5-3.1
			c-0.8-0.5-1.4,0.1-1.7,0.5C170.5,268.5,171.9,268.9,172.5,269.8z"/>
		<path class="st3" d="M289.8,278.6c-2,0-3.5-1.5-3.5-3.5c0-2,1.4-3.5,3.5-3.7c0.9-0.1,1.8-0.2,2.6-0.6c1-0.5,1.6-1.5,1.6-2.7
			c0-3.4,0.1-6.9,0-10.3c0-0.8-0.5-1.9-1.2-2.4c-1.4-1.1-1.5-3.1-0.7-4.4c0.9-1.4,2.6-2.1,4.3-1.6c2.7,0.8,3.5,3.7,1.5,5.7
			c-0.9,0.9-1.3,1.9-1.3,3.1c0,2.7,0,5.3,0.1,8c0,2.4-0.5,4.5-2.5,6.1c-0.5,0.4-0.7,1.5-0.8,2.3C293.3,277.1,292,278.7,289.8,278.6z
			 M289.7,277.2c0.5-0.6,0.9-1,1.1-1.4c0.1-0.3,0.2-1,0-1.1c-0.4-0.3-1.1-0.7-1.4-0.6c-0.4,0.2-0.8,0.9-0.7,1.4
			C288.7,276,289.3,276.5,289.7,277.2z M297.2,252.7c-1.2-1.3-1.7-1.5-2.5-0.8c-0.7,0.6-0.6,1.2,0,1.8
			C295.4,254.4,296,254.2,297.2,252.7z"/>
		<path class="st3" d="M268.3,141.3c0,2.9-1.7,4.4-4.3,4c-1.6-0.3-2.7-1.6-2.8-3.4c0-1.7,0.9-2.9,2.5-3.3c0.5-0.1,1.1-0.1,1.5-0.2
			c0.8-0.3,1.8-0.5,2.4-1.1c1.7-1.9,3.9-2.5,6.3-2.2c1.8,0.2,3.3-0.1,4.5-1.6c0.8-1.1,2.1-1,3.2-0.6c1.5,0.5,2.4,1.5,2.5,3
			c0.2,1.6-0.5,2.9-1.8,3.8c-1.2,0.8-2.6,0.6-3.9-0.4c-2.6-2-5.3-2.2-8.2-0.9C268.9,138.8,268,139.8,268.3,141.3z M266.8,141.8
			c-0.4-0.3-0.8-0.6-1.1-0.9c-0.6-0.6-1.3-0.6-1.7,0c-0.2,0.4-0.2,1.2,0.1,1.6c0.4,0.8,1.1,0.5,1.6,0.1
			C266,142.5,266.3,142.2,266.8,141.8z M280.7,138.3c0.4-0.5,0.6-0.9,0.9-1.1c0.4-0.4,0.7-0.8,0.1-1.3c-0.5-0.4-0.8-1.1-1.6-0.6
			c-0.5,0.4-1.1,0.8-0.6,1.6C279.9,137.3,280.3,137.8,280.7,138.3z"/>
		<path class="st3" d="M263.9,340.4c0,2-1.5,3.6-3.5,3.5c-1.6,0-2.9,0.5-4,1.7c-1.8,1.9-3.8,3.7-5.6,5.6c-0.6,0.6-0.8,1.7-0.9,2.6
			c-0.2,1.5-0.5,2.9-2,3.6c-1.2,0.6-2.5,0.5-3.6-0.3c-1.2-0.8-1.8-2.1-1.5-3.5c0.2-1.5,1.3-2.7,2.7-2.6c2.8,0,4.4-1.8,6.1-3.5
			c1.3-1.3,2.5-2.6,3.8-3.8c0.9-0.9,1.3-1.8,1.3-3.1c0-1.8,0.9-3,2.5-3.6C261.5,336.3,263.9,338,263.9,340.4z M244.8,354.2
			c0.6,0.7,1.1,1.3,1.6,2c1.3-2,1.5-2.5,0.6-3C245.8,352.4,245.6,353.7,244.8,354.2z M260.2,342.3c1.5-1.3,1.7-1.7,0.9-2.6
			c-0.7-0.8-1.2-0.3-1.7,0.2C258.7,340.5,258.8,341,260.2,342.3z"/>
	</g>
</g>
<g id="Delta">
	<path class="st4" d="M274.7,205.4l-46.3,84.2c-0.7,1.4-0.3,3,1,3.8l50.7,30c1.8,1.1,1.1,3.9-1.1,3.9c-19.3,0-38.6,0-57.9,0
		c-15.7,0-31.4,0-47,0c-0.1,0-1.2,0-1.8-1.1c-0.4-0.6-0.4-1.4,0-2.1l52.8-94.5c0.2-0.3,0.5-0.6,0.8-0.8l45.8-26.3
		C273.7,201.5,275.7,203.6,274.7,205.4z"/>
	<path class="st5" d="M340,208.7c1.2,2.1,1.8,4.5,1.8,7l0.1,55.7c0,2.2-2.8,2.9-3.9,1.1l-49.7-82.2c-0.8-1.3-2.5-1.7-3.8-1
		L237.8,215c-1.9,1-3.9-1-2.9-2.9l51.5-91.5c0.8-1.4,2.9-1.4,3.7,0"/>
	<path class="st6" d="M298.5,327l-22-13.1l-27.9-16.7c-1.8-1.1-1.1-3.9,1.1-3.9h24.4h2.6h68.8c1.6,0,2.8-1.3,2.8-2.8v-59.1
		c0-2.2,2.9-2.9,4-1l5.9,10.6l46.5,83.3c0.8,1.4-0.2,3.1-1.8,3.1l-103.1,0C299.2,327.3,298.8,327.2,298.5,327z"/>
</g>
<g id="doolta_vector">
	<g>
		<path class="st7" d="M199.8,349.3c1.9,1.9,3.3,4,4.3,6.3c1,2.3,1.5,4.8,1.5,7.4s-0.5,5.1-1.5,7.4c-1,2.3-2.4,4.4-4.3,6.3
			c-1.8,1.8-3.9,3.2-6.3,4.2c-2.4,1-4.8,1.5-7.5,1.5h-9.2v-4.8v-24h4.8v24h4.5c2,0,4-0.4,5.7-1.1c1.8-0.8,3.3-1.8,4.7-3.1
			s2.4-2.9,3.1-4.7c0.8-1.8,1.2-3.7,1.2-5.7c0-2-0.4-3.9-1.2-5.7c-0.8-1.8-1.8-3.3-3.1-4.7s-2.9-2.4-4.7-3.1
			c-1.8-0.8-3.7-1.2-5.7-1.2h-9.2v-4.8h9.2c2.6,0,5.1,0.5,7.5,1.5C195.9,346.1,198,347.5,199.8,349.3z"/>
		<path class="st7" d="M232.7,382.4c-2.6,0-5.1-0.5-7.5-1.5c-2.3-1-4.4-2.4-6.2-4.2c-1.8-1.8-3.2-3.9-4.2-6.3
			c-1-2.4-1.5-4.8-1.5-7.4c0-2.6,0.5-5.1,1.5-7.5c1-2.4,2.4-4.5,4.2-6.3c1.8-1.8,3.9-3.2,6.2-4.2c2.3-1,4.8-1.5,7.5-1.5
			c2.6,0,5.1,0.5,7.4,1.5c2.3,1,4.4,2.4,6.2,4.2c1.9,1.8,3.3,3.9,4.3,6.3c1,2.4,1.5,4.8,1.5,7.5c0,2.6-0.5,5-1.5,7.4
			c-1,2.4-2.4,4.5-4.3,6.3c-1.8,1.8-3.9,3.2-6.2,4.2C237.8,381.9,235.3,382.4,232.7,382.4z M232.7,348.4c-2,0-3.9,0.4-5.7,1.1
			c-1.8,0.8-3.3,1.8-4.7,3.1s-2.4,2.9-3.1,4.7c-0.8,1.8-1.1,3.7-1.1,5.7c0,2,0.4,3.9,1.1,5.7c0.8,1.8,1.8,3.3,3.1,4.7
			s2.9,2.4,4.7,3.1c1.8,0.8,3.7,1.1,5.7,1.1c2,0,3.9-0.4,5.7-1.1c1.8-0.8,3.3-1.8,4.7-3.1s2.4-2.9,3.1-4.7c0.8-1.8,1.2-3.7,1.2-5.7
			c0-2-0.4-4-1.2-5.7c-0.8-1.8-1.8-3.3-3.1-4.7s-2.9-2.4-4.7-3.1C236.6,348.8,234.7,348.4,232.7,348.4z"/>
		<path class="st7" d="M279.7,382.4c-2.6,0-5.1-0.5-7.5-1.5c-2.3-1-4.4-2.4-6.2-4.2c-1.8-1.8-3.2-3.9-4.2-6.3
			c-1-2.4-1.5-4.8-1.5-7.4c0-2.6,0.5-5.1,1.5-7.5c1-2.4,2.4-4.5,4.2-6.3c1.8-1.8,3.9-3.2,6.2-4.2c2.3-1,4.8-1.5,7.5-1.5
			c2.6,0,5.1,0.5,7.4,1.5c2.3,1,4.4,2.4,6.2,4.2c1.9,1.8,3.3,3.9,4.3,6.3s1.5,4.8,1.5,7.5c0,2.6-0.5,5-1.5,7.4s-2.4,4.5-4.3,6.3
			c-1.8,1.8-3.9,3.2-6.2,4.2C284.7,381.9,282.3,382.4,279.7,382.4z M279.7,348.4c-2,0-3.9,0.4-5.7,1.1c-1.8,0.8-3.3,1.8-4.7,3.1
			s-2.4,2.9-3.1,4.7c-0.8,1.8-1.1,3.7-1.1,5.7c0,2,0.4,3.9,1.1,5.7c0.8,1.8,1.8,3.3,3.1,4.7s2.9,2.4,4.7,3.1
			c1.8,0.8,3.7,1.1,5.7,1.1c2,0,3.9-0.4,5.7-1.1c1.8-0.8,3.3-1.8,4.7-3.1s2.4-2.9,3.1-4.7c0.8-1.8,1.2-3.7,1.2-5.7
			c0-2-0.4-4-1.2-5.7c-0.8-1.8-1.8-3.3-3.1-4.7s-2.9-2.4-4.7-3.1C283.6,348.8,281.7,348.4,279.7,348.4z"/>
		<path class="st7" d="M312.9,372.9h-4.8v-29.2h4.8V372.9z M333.9,382.4h-25.7v-4.8h25.7V382.4z"/>
		<path class="st7" d="M365.2,348.4h-25.7v-4.8h25.7V348.4z M354.8,382.4H350v-29.2h4.8V382.4z"/>
		<path class="st7" d="M388.8,354.9L376,382.4h-5.2l15.4-33.1l2.6-5.7l2.6,5.7L388.8,354.9z M401.5,382.4l-10.1-21.8l2.6-5.6
			l12.7,27.4H401.5z"/>
	</g>
</g>
<g id="Circuits_Imprimés">
	<polygon points="274.1,293.2 276.7,293.2 276.5,313.8 274.1,312.4 	"/>
	<path d="M264.1,293.2h2.5c0,0-0.2,8.2-0.2,8.5c0,0.5-0.4,1.2-1.1,1.8c-0.5,0.5-2.3,2.3-2.3,2.3l-1.8-1.1c0,0,1.4-1.4,1.9-2
		c0.5-0.7,0.8-0.7,0.8-1.6C263.9,300.3,264.1,293.2,264.1,293.2z"/>
	<path d="M317.1,293.2h2.5c0,0-0.2,11.8-0.2,12.6s-0.2,2.2-1,3.1c-0.8,0.9-8.3,8.9-8.7,9.3c-0.3,0.4-0.8,1.2-0.8,2.3
		c0,1.2,0,6.7,0,6.7h-2.6c0,0,0-6.5,0-7.2s0.3-1.8,1-2.5c0.7-0.7,8.7-8.9,9.2-9.9c0.4-0.9,0.5-1.9,0.4-3.2
		C316.9,303.7,317.1,293.2,317.1,293.2z"/>
	<polygon points="252.5,181 255.2,176.1 255.1,205.5 252.4,207 	"/>
	<polygon points="244.4,195.2 247,190.6 246.9,210 244.3,211.4 	"/>
	<g id="Calque_12">
		<path class="st8" d="M304.4,165.4c-0.1,1.7-1.6,3.1-3.4,2.9c-0.3,0-0.6-0.1-0.8-0.2c-1.3-0.5-2.2-1.8-2.1-3.2
			c0.1-1.7,1.6-3.1,3.4-2.9C303.2,162.1,304.5,163.6,304.4,165.4z"/>
		<polygon points="300.1,209.8 302.5,213.8 302.5,168.3 300.1,168.3 		"/>
		<path d="M302.3,213.2l16.4,15.6c0,0,1.1,0.9,1.1,2.8s0,10.8,0,10.8l-2.4-4l0.2-6.7c0-0.1,0-0.2,0-0.2c-0.1-0.8-0.5-1.4-0.8-1.8
			c-0.4-0.5-10.3-9.2-10.3-9.2l-4.4-7.3L302.3,213.2z"/>
		<path d="M336.4,269.8l1.5,2.4c0.1,0.1,0.6,0.9,1.1,1.1l0.1-22.5c0,0.3-0.1,0.2-0.2,0.2h-1.9c-0.1,0-0.2,0.1-0.2,0.2L336.4,269.8z"
			/>
		<path d="M355.9,243.8c0,1.4-0.1,39.1,0,40.4s2.1,3.2,2.8,3.9s13.4,13.4,14.4,14.5s1.1,2.2,1.1,4.4s0,20.4,0,20.4l2.1,0v-20.8
			c0,0,0.6-2.9-1.4-5s-15.4-15-15.4-15s-1.7-1.6-1.7-3s0-37.4,0-38c0-1,0.4-1.8,1.4-2.7l-1.1-1.9C358.1,240.9,355.9,243,355.9,243.8
			z"/>
		<path class="st9" d="M340.9,249.3c-0.1,1.7-1.6,2.9-3.3,2.8c-0.3,0-0.6-0.1-0.8-0.2c-1.3-0.5-2.1-1.7-2-3.1
			c0.1-1.7,1.6-2.9,3.3-2.8C339.7,246.1,341,247.6,340.9,249.3z"/>
		<path d="M370.2,262.5l-1.9-3.3c-0.1-0.1-0.3,16.2-0.3,16.2c0.1,0,0.1,0,0.2,0l1.8,0C370.1,275.4,370.2,262.5,370.2,262.5z"/>
		<path class="st8" d="M366.1,277.8c0.1-1.7,1.6-2.9,3.3-2.8c0.3,0,0.6,0.1,0.8,0.2c1.3,0.4,2.1,1.7,2,3.1c-0.1,1.7-1.6,2.9-3.3,2.8
			C367.2,280.9,366,279.4,366.1,277.8z"/>
		<path d="M339,293.3h-2.6c-0.1-0.1-0.3,15.7-0.3,15.7c0.1,0,0.1,0,0.2,0l2.3,0C338.7,309,339,293.3,339,293.3z"/>
		<path class="st10" d="M334.4,311.3c0.1-1.6,1.6-2.9,3.3-2.7c0.3,0,0.6,0.1,0.8,0.2c1.3,0.4,2.1,1.6,2,3c-0.1,1.6-1.6,2.9-3.3,2.7
			C335.5,314.3,334.3,312.9,334.4,311.3z"/>
		<path d="M297,326.1l1.8,1.1c0.1,0,0.4-2.5,0.4-2.5c-0.1,0-0.1,0-0.2,0l-1.8,0C297.2,324.6,296.9,326.1,297,326.1z"/>
		<path class="st11" d="M301.1,322.3c-0.1,1.7-1.6,2.9-3.3,2.8c-0.3,0-0.6-0.1-0.8-0.2c-1.2-0.5-2.1-1.7-2-3.1
			c0.1-1.7,1.6-2.9,3.3-2.8C300,319.1,301.3,320.6,301.1,322.3z"/>
		<line class="st12" x1="327.3" y1="293.2" x2="327.3" y2="327.3"/>
	</g>
	<g id="Calque_11">
		<path class="st13" d="M293.2,166.5c-0.1,1.7-1.6,3.1-3.4,2.9c-0.3,0-0.6-0.1-0.8-0.2c-1.3-0.5-2.2-1.8-2.1-3.2
			c0.1-1.7,1.6-3.1,3.4-2.9S293.3,164.7,293.2,166.5z"/>
		<path class="st14" d="M287.8,189.7"/>
		<polygon points="288.9,191.3 291.3,195.2 291.3,169.4 288.9,169.4 		"/>
	</g>
	<g id="Calque_10">
		<path d="M203.8,291.5c0,0,11.4,0,11.8,0c0.4,0,0.4,0.5,0.4,0.9s0,29.9,0,29.9l4.5,5h3.2c0,0-4.8-4.7-5.1-5.2s-0.1-31.7-0.1-31.7
			s0.2-1.4-1.3-1.5c-1.7-0.1-13.7,0-13.7,0L203.8,291.5z"/>
		<path class="st15" d="M200.4,274.1c0,0,23.8,0.6,24.9,0.2c1.2-0.3,2.6-1.8,2.6-1.8l17.5-17.3c0,0,1-0.8,1-2.1c0-1.7,0-1.8,0-1.8
			l0.5-34.6l-2.6,1.5c0,0-0.2,33.1-0.4,34s0.2,0.7-1.4,2.4c-1.7,1.8-15.7,15.8-16.3,16.2c-0.2,0.1-0.8,0.8-4.4,0.9
			c-4.5,0.1-19.9-0.2-19.9-0.2L200.4,274.1z"/>
		<g id="Calque_7">
			<g id="Calque_8">
			</g>
			<path class="st16" d="M203.5,290.1"/>
			<path class="st16" d="M218.2,323.2"/>
			<path class="st17" d="M227.8,311.8"/>
			<g>
				<circle class="st16" cx="229.2" cy="315.1" r="2.6"/>
				<path d="M227.8,311.9c0,0,0.1-9.3,0.2-9.7s0-0.8,0.5-1.5s4.8-5.1,4.8-5.1l1.8,1.1c0,0-4.3,4.4-4.5,4.8s-0.3,0.5-0.3,1.4
					s-0.1,9-0.1,9H227.8z"/>
			</g>
			<g id="Calque_9">
			</g>
			<g>
				<path class="st18" d="M200.5,287.6c-1.4,0-2.6,1.2-2.5,2.6c0,1.4,1.2,2.6,2.6,2.5c1.2,0,2.3-0.9,2.5-2.1c0-0.2,0-0.3,0-0.5
					C203.1,288.7,201.9,287.6,200.5,287.6z"/>
			</g>
		</g>
		<circle class="st19" cx="219" cy="257.3" r="3.4"/>
		<polygon points="214.9,255.2 210.9,255.2 209.3,258.1 214.9,258.1 216.2,255.2 		"/>
		<polygon points="252.4,213.7 255,212.2 254.9,241.5 252.3,246.2 		"/>
		<path d="M181.8,307.5h17.6c0.3,0,0.6,0.2,0.6,0.6v19.3h2.6v-21c0-0.5-0.4-0.8-0.8-0.8H183L181.8,307.5z"/>
	</g>
</g>
</svg>
